<?xml version="1.0" standalone="no"?>
<!DOCTYPE svg PUBLIC "-//W3C//DTD SVG 20010904//EN"
 "http://www.w3.org/TR/2001/REC-SVG-20010904/DTD/svg10.dtd">
<svg version="1.0" xmlns="http://www.w3.org/2000/svg"
 width="225.000000pt" height="225.000000pt" viewBox="0 0 225.000000 225.000000"
 preserveAspectRatio="xMidYMid meet">

<g transform="translate(0.000000,225.000000) scale(0.100000,-0.100000)"
fill="#878B82" stroke="none">
<path d="M1323 2035 c-136 -25 -218 -58 -275 -113 l-37 -35 -1 -220 c0 -122
-2 -222 -3 -223 -2 -2 -39 3 -82 11 -255 46 -595 -8 -701 -109 l-43 -42 -1
-476 0 -475 41 -37 c49 -45 105 -70 219 -99 72 -18 113 -22 275 -22 163 0 202
4 277 22 106 27 196 71 232 113 23 28 26 40 26 107 0 73 1 75 23 69 119 -31
401 -32 537 -1 101 23 209 74 243 114 l27 33 0 616 -1 616 -43 41 c-51 49
-148 88 -273 110 -104 18 -340 18 -440 0z m422 -76 c236 -32 325 -114 192
-174 -96 -44 -196 -58 -392 -58 -204 0 -305 16 -395 60 -97 49 -75 103 59 143
36 11 93 24 126 29 87 12 321 13 410 0z m-603 -249 c105 -46 213 -64 393 -64
207 -1 295 15 448 79 15 6 17 -1 17 -85 0 -50 -4 -99 -10 -109 -12 -24 -90
-57 -182 -78 -54 -12 -122 -16 -263 -16 -212 0 -299 13 -395 61 l-55 27 -3
103 c-1 56 -1 102 1 102 3 0 25 -9 49 -20z m32 -302 c102 -40 184 -51 371 -52
191 0 295 16 403 64 24 11 46 20 49 20 2 0 2 -46 1 -102 l-3 -103 -55 -28
c-88 -43 -184 -59 -370 -61 -165 -1 -284 8 -309 23 -9 6 -13 29 -12 70 0 54
-3 65 -28 94 -16 18 -52 44 -80 57 -28 13 -51 30 -51 38 0 10 6 12 18 7 9 -4
39 -16 66 -27z m-179 -43 c75 -17 146 -47 165 -70 24 -29 3 -65 -55 -91 -96
-44 -183 -57 -385 -58 -185 0 -264 9 -360 41 -169 57 -120 143 105 182 33 6
71 13 85 15 57 10 377 -4 445 -19z m-635 -252 c101 -38 244 -56 400 -50 170 6
255 24 393 82 15 7 17 -2 17 -93 0 -98 -1 -101 -27 -120 -76 -53 -212 -77
-438 -77 -216 1 -343 24 -417 77 -27 19 -28 22 -28 120 0 92 1 99 18 93 9 -4
46 -19 82 -32z m1640 -62 c0 -97 -1 -100 -27 -119 -66 -45 -180 -70 -358 -78
-119 -6 -307 6 -349 22 -13 5 -16 23 -16 111 0 104 0 105 23 100 187 -46 500
-28 655 37 31 13 60 24 65 25 4 0 7 -44 7 -98z m-1690 -211 c73 -37 197 -61
350 -67 203 -7 336 15 493 82 16 6 17 -1 17 -93 0 -98 -1 -101 -27 -120 -16
-11 -48 -26 -73 -35 -104 -35 -166 -42 -360 -41 -168 0 -208 3 -287 23 -51 12
-107 32 -125 45 l-33 22 -3 102 c-1 56 0 102 3 102 3 0 24 -9 45 -20z m1690
-79 c0 -97 -1 -100 -27 -119 -68 -46 -182 -71 -363 -79 -131 -5 -300 6 -345
23 -12 5 -15 26 -15 111 0 104 0 105 23 99 65 -18 215 -28 332 -23 145 7 234
24 321 60 32 14 62 25 67 26 4 0 7 -44 7 -98z m-1690 -211 c22 -11 79 -30 127
-42 75 -19 115 -22 278 -22 163 0 203 3 278 22 48 12 105 31 127 42 21 11 42
20 45 20 3 0 5 -45 5 -100 l0 -100 -37 -24 c-136 -90 -607 -102 -800 -21 -69
29 -73 37 -73 147 0 54 2 98 5 98 3 0 24 -9 45 -20z"/>
</g>
</svg>
