<svg xmlns="http://www.w3.org/2000/svg" width="39" height="39" viewBox="0 0 39 39" fill="none">
<rect width="39" height="39" fill="#262626"/>
<g clip-path="url(#clip0_289_997)">
<rect width="393" height="1941" transform="translate(-221 -383)" fill="#131618"/>
<path d="M-16 -7C-16 -15.8366 -8.83656 -23 0 -23H86.0872C89.598 -23 93.0114 -21.8453 95.8011 -19.7138L109.449 -9.28622C112.239 -7.15474 115.652 -6 119.163 -6H141C149.837 -6 157 1.16344 157 10V161C157 169.837 149.837 177 141 177H0C-8.83656 177 -16 169.837 -16 161V-7Z" fill="#3B7EE3"/>
<path d="M19.5 0C24.7086 0 29.6059 2.02795 33.2891 5.71094C36.972 9.394 39 14.2914 39 19.5C39 24.7086 36.972 29.606 33.2891 33.2891C29.6059 36.972 24.7086 39 19.5 39C14.2914 39 9.394 36.972 5.71094 33.2891C2.02795 29.606 0 24.7086 0 19.5C0 14.2914 2.02795 9.394 5.71094 5.71094C9.394 2.02795 14.2914 0 19.5 0ZM19.5 1.14258C14.5965 1.14258 9.9868 3.05226 6.51953 6.51953C3.05226 9.9868 1.14258 14.5965 1.14258 19.5C1.14258 24.4035 3.05226 29.0132 6.51953 32.4805C9.9868 35.9477 14.5965 37.8574 19.5 37.8574C24.4035 37.8574 29.0132 35.9477 32.4805 32.4805C35.9477 29.0132 37.8574 24.4035 37.8574 19.5C37.8574 14.5965 35.9477 9.9868 32.4805 6.51953C29.0132 3.05226 24.4035 1.14258 19.5 1.14258ZM10.2344 5.45801C10.4975 5.28396 10.8523 5.35694 11.0264 5.62012C11.2001 5.88323 11.1281 6.23713 10.8652 6.41113C10.1347 6.89406 9.45332 7.43236 8.82422 8.0166L10.2412 9.43359C10.4643 9.65669 10.4643 10.0181 10.2412 10.2412C10.1298 10.3526 9.98392 10.4091 9.83789 10.4092C9.69172 10.4092 9.54511 10.3528 9.43359 10.2412L8.0166 8.82422C5.4733 11.5563 3.97027 15.1255 3.83301 18.9287H5.83496C6.15046 18.9287 6.40625 19.1845 6.40625 19.5C6.40625 19.8155 6.15047 20.0713 5.83496 20.0713H3.83301C3.97316 23.9638 5.5385 27.4986 8.02246 30.1689L9.43359 28.7588C9.6567 28.5357 10.0181 28.5357 10.2412 28.7588C10.4643 28.9819 10.4643 29.3433 10.2412 29.5664L8.83105 30.9775C11.5014 33.4615 15.0363 35.0268 18.9287 35.167V33.165C18.9287 32.8495 19.1845 32.5938 19.5 32.5938C19.8155 32.5938 20.0713 32.8495 20.0713 33.165V35.167C21.9861 35.099 23.8444 34.6908 25.6025 33.9473C25.8931 33.8243 26.2286 33.9603 26.3516 34.251C26.4742 34.5414 26.3382 34.8761 26.0479 34.999C23.9737 35.8763 21.7706 36.3213 19.5 36.3213C15.0069 36.3213 10.7826 34.5716 7.60547 31.3945C4.42837 28.2174 2.67871 23.9931 2.67871 19.5C2.67871 13.8356 5.50309 8.58595 10.2344 5.45801ZM19.5 2.67871C23.9931 2.67871 28.2174 4.42834 31.3945 7.60547C34.5717 10.7826 36.3213 15.0068 36.3213 19.5C36.3213 22.4419 35.55 25.3371 34.0918 27.873C32.6776 30.3325 30.6482 32.4119 28.2227 33.8857C28.13 33.942 28.0278 33.9687 27.9268 33.9688C27.7337 33.9688 27.5451 33.8713 27.4375 33.6943C27.2737 33.4247 27.3602 33.073 27.6299 32.9092C28.5428 32.3544 29.3947 31.7063 30.1738 30.9814L28.7588 29.5664C28.5357 29.3433 28.5357 28.9819 28.7588 28.7588C28.9819 28.5357 29.3433 28.5357 29.5664 28.7588L30.9814 30.1738C31.7924 29.3021 32.506 28.3395 33.1016 27.3037C34.3659 25.1052 35.0753 22.616 35.168 20.0713H33.165C32.8495 20.0713 32.5938 19.8155 32.5938 19.5C32.5938 19.1845 32.8495 18.9287 33.165 18.9287H35.167C35.0268 15.0363 33.4615 11.5014 30.9775 8.83105L29.5664 10.2412C29.4549 10.3528 29.3083 10.4092 29.1621 10.4092C29.0161 10.4091 28.8702 10.3526 28.7588 10.2412C28.5357 10.0181 28.5357 9.65669 28.7588 9.43359L30.1689 8.02246C27.4986 5.53855 23.9637 3.97316 20.0713 3.83301V5.83496C20.0713 6.15046 19.8155 6.40625 19.5 6.40625C19.1845 6.40625 18.9287 6.15047 18.9287 5.83496V3.83301C16.7935 3.90834 14.7371 4.40562 12.8096 5.31641C12.5246 5.45065 12.1846 5.32874 12.0498 5.04395C11.915 4.75868 12.037 4.41803 12.3223 4.2832C14.575 3.21883 16.9898 2.67871 19.5 2.67871ZM21.5186 24.9463C21.8341 24.9463 22.0898 25.2021 22.0898 25.5176C22.0898 25.8331 21.8341 26.0889 21.5186 26.0889H17.4814C17.1659 26.0889 16.9102 25.8331 16.9102 25.5176C16.9102 25.2021 17.1659 24.9463 17.4814 24.9463H21.5186ZM26.0166 11.9551C26.2397 11.732 26.6021 11.732 26.8252 11.9551C27.0479 12.1782 27.048 12.5397 26.8252 12.7627L21.0459 18.541C21.1532 18.7647 21.2138 19.0152 21.2139 19.2793C21.2139 20.2243 20.4451 20.9932 19.5 20.9932C18.5549 20.9932 17.7861 20.2244 17.7861 19.2793C17.7862 19.0151 17.8468 18.7647 17.9541 18.541L14.8262 15.4141C14.6032 15.1911 14.6033 14.8296 14.8262 14.6064C15.0492 14.3833 15.4107 14.3833 15.6338 14.6064L18.7617 17.7334C18.9855 17.6261 19.2358 17.5654 19.5 17.5654C19.7642 17.5654 20.0146 17.6262 20.2383 17.7334L26.0166 11.9551ZM19.5 18.708C19.1851 18.708 18.9289 18.9645 18.9287 19.2793C18.9287 19.5943 19.185 19.8506 19.5 19.8506C19.815 19.8506 20.0713 19.5943 20.0713 19.2793C20.0711 18.9645 19.8149 18.708 19.5 18.708Z" fill="#020709"/>
<path d="M34.6201 45.3799L39 47L34.6201 48.6201L33 53L31.3799 48.6201L27 47L31.3799 45.3799L33 41L34.6201 45.3799ZM-1.28418 -3.71582L2 -2.5L-1.28418 -1.28418L-2.5 2L-3.71582 -1.28418L-7 -2.5L-3.71582 -3.71582L-2.5 -7L-1.28418 -3.71582ZM42.3506 -4.35059L46 -3L42.3506 -1.64941L41 2L39.6494 -1.64941L36 -3L39.6494 -4.35059L41 -8L42.3506 -4.35059Z" fill="#020709"/>
</g>
<defs>
<clipPath id="clip0_289_997">
<rect width="393" height="1941" fill="white" transform="translate(-221 -383)"/>
</clipPath>
</defs>
</svg>