<svg width="24" height="24" viewBox="0 0 24 24" fill="none" xmlns="http://www.w3.org/2000/svg">
<path d="M2.99239 12.0537C3.00357 12.0351 3.01582 12.0174 3.02848 12C3.01582 11.9826 3.00357 11.9648 2.99239 11.9462L1.10493 8.8167C0.965019 8.5848 0.965019 8.29665 1.10493 8.06475L2.99239 4.93521C3.13226 4.7033 3.39291 4.55923 3.67264 4.55923H7.44761C7.46997 4.55923 7.49218 4.56048 7.51427 4.56228C7.52365 4.54307 7.53361 4.52404 7.54479 4.50552L8.31005 3.23674C8.40301 3.08261 8.60895 3.02976 8.76991 3.11879C8.93092 3.20778 8.98608 3.40487 8.89313 3.559L8.12791 4.82779C8.10793 4.86091 8.10793 4.90208 8.12791 4.93521L10.0154 8.06479C10.0354 8.09792 10.0726 8.1185 10.1126 8.1185H13.8876C13.9275 8.1185 13.9648 8.09792 13.9847 8.06479L15.8722 4.93521C15.8922 4.90208 15.8922 4.86091 15.8722 4.82779L13.9847 1.69824C13.9648 1.66511 13.9276 1.64453 13.8876 1.64453H10.1126C10.0726 1.64453 10.0354 1.66511 10.0154 1.69824L9.6877 2.24158C9.59474 2.39571 9.3888 2.44848 9.22784 2.35953C9.06684 2.27054 9.01167 2.07345 9.10463 1.91932L9.4323 1.37602C9.57212 1.14407 9.83282 1 10.1125 1H13.8875C14.1672 1 14.4279 1.14407 14.5678 1.37598L16.4552 4.50552C16.4664 4.52408 16.4764 4.54312 16.4858 4.56232C16.5079 4.56052 16.5301 4.55927 16.5525 4.55927H20.3274C20.6071 4.55927 20.8678 4.70335 21.0076 4.93525L22.8951 8.06484C23.035 8.29674 23.035 8.58489 22.8951 8.81679L21.0076 11.9464C20.9965 11.9649 20.9842 11.9827 20.9715 12C20.9842 12.0174 20.9965 12.0352 21.0076 12.0538L22.8951 15.1833C23.035 15.4152 23.035 15.7033 22.8951 15.9353L21.0077 19.0648C20.8678 19.2967 20.6072 19.4408 20.3274 19.4408H16.5525C16.5301 19.4408 16.5079 19.4395 16.4858 19.4377C16.4765 19.4569 16.4665 19.476 16.4553 19.4945L14.5678 22.624C14.4279 22.8559 14.1673 23 13.8876 23H10.1126C9.83286 23 9.57216 22.8559 9.43234 22.624L7.54484 19.4945C7.53366 19.4759 7.52369 19.4569 7.51431 19.4377C7.49223 19.4395 7.47005 19.4408 7.44766 19.4408H3.67269C3.39296 19.4408 3.13226 19.2967 2.99244 19.0648L1.10497 15.9353C0.965063 15.7033 0.965063 15.4152 1.10497 15.1833L2.99239 12.0537ZM10.0154 15.1833C10.0265 15.2018 10.0365 15.2208 10.0459 15.24C10.068 15.2382 10.0901 15.237 10.1125 15.237H13.8875C13.9098 15.237 13.932 15.2382 13.9541 15.24C13.9635 15.2208 13.9735 15.2018 13.9847 15.1833L15.8721 12.0537C15.8833 12.0351 15.8955 12.0174 15.9082 12C15.8955 11.9826 15.8833 11.9649 15.8721 11.9463L13.9847 8.81675C13.9735 8.79818 13.9635 8.77919 13.9541 8.75998C13.932 8.76179 13.9099 8.76304 13.8875 8.76304H10.1125C10.0901 8.76304 10.0679 8.76179 10.0458 8.75998C10.0365 8.77919 10.0265 8.79823 10.0153 8.81675L8.12782 11.9463C8.11664 11.9649 8.10443 11.9826 8.09173 12C8.10439 12.0174 8.11664 12.0351 8.12782 12.0537L10.0154 15.1833ZM22.3121 8.49448C22.332 8.46135 22.332 8.42019 22.3121 8.38706L20.4246 5.25752C20.4046 5.22439 20.3674 5.2038 20.3274 5.2038H16.5524C16.5124 5.2038 16.4752 5.22439 16.4552 5.25752L14.5677 8.38706C14.5477 8.42019 14.5477 8.46135 14.5677 8.49448L16.4552 11.624C16.4752 11.6572 16.5124 11.6777 16.5524 11.6777H20.3274C20.3673 11.6777 20.4046 11.6572 20.4246 11.624L22.3121 8.49448ZM8.12786 19.1722L10.0154 22.3018C10.0353 22.3349 10.0726 22.3555 10.1125 22.3555H13.8875C13.9275 22.3555 13.9647 22.3349 13.9847 22.3018L15.8722 19.1722C15.8922 19.139 15.8922 19.0979 15.8722 19.0647L15.329 18.1641C15.3232 18.1545 15.318 18.1447 15.3133 18.1348C15.2433 17.9858 15.3013 17.8074 15.4522 17.7239C15.6133 17.6348 15.8191 17.6877 15.9121 17.8419L16.4553 18.7424C16.4752 18.7756 16.5125 18.7962 16.5525 18.7962H20.3274C20.3673 18.7962 20.4046 18.7756 20.4246 18.7424L22.312 15.6129C22.332 15.5798 22.332 15.5386 22.312 15.5055L20.4246 12.3759C20.4046 12.3428 20.3673 12.3222 20.3274 12.3222H16.5524C16.5125 12.3222 16.4752 12.3428 16.4552 12.3759L14.5678 15.5055C14.5478 15.5386 14.5478 15.5798 14.5678 15.6129L15.1176 16.5247C15.2106 16.6788 15.1554 16.8759 14.9944 16.9649C14.8335 17.0539 14.6275 17.001 14.5346 16.8469L13.9847 15.9352C13.9647 15.902 13.9275 15.8815 13.8875 15.8815H10.1125C10.0726 15.8815 10.0353 15.902 10.0154 15.9352L8.12791 19.0647C8.10789 19.0979 8.10789 19.1391 8.12786 19.1722ZM1.688 15.6129L3.57551 18.7425C3.59548 18.7757 3.63269 18.7962 3.67269 18.7962H7.44766C7.48761 18.7962 7.52486 18.7757 7.54484 18.7425L9.43234 15.613C9.45232 15.5799 9.45232 15.5387 9.43234 15.5056L7.54484 12.376C7.52486 12.3429 7.48765 12.3223 7.44766 12.3223H6.22316C6.03724 12.3223 5.88652 12.178 5.88652 12C5.88652 11.8221 6.03724 11.6778 6.22316 11.6778H7.44766C7.48761 11.6778 7.52486 11.6572 7.54484 11.6241L9.43234 8.49452C9.45232 8.46139 9.45232 8.42023 9.43234 8.3871L7.54484 5.25756C7.52486 5.22443 7.48761 5.20385 7.44766 5.20385H3.67269C3.63274 5.20385 3.59548 5.22443 3.57551 5.25756L1.68805 8.38715C1.66807 8.42027 1.66807 8.4614 1.68805 8.49457L3.57551 11.6241C3.59548 11.6572 3.63274 11.6778 3.67269 11.6778H4.63437C4.82029 11.6778 4.97102 11.8221 4.97102 12.0001C4.97102 12.1781 4.82029 12.3224 4.63437 12.3224H3.67269C3.63274 12.3224 3.59548 12.3429 3.57551 12.3761L1.68805 15.5056C1.66803 15.5386 1.66803 15.5798 1.688 15.6129Z" fill="#878B82"/>
</svg>
