<svg width="100" height="100" viewBox="0 0 100 100" xmlns="http://www.w3.org/2000/svg" fill="none">
  <!-- Main Star from the First SVG -->
  <g transform="translate(33, 33) scale(1)">
    <!-- Place your original star paths here -->
    <!-- Example below: Replace with your full star paths -->
    <svg xmlns="http://www.w3.org/2000/svg" width="34" height="34" viewBox="0 0 34 34" fill="none">
  <g clip-path="url(#clip0_1345_4654)">
    <path d="M21.9536 20.7564L20.6422 16.1834L24.3911 13.2545C24.6111 13.0827 24.7001 12.7915 24.6139 12.526C24.5276 12.2605 24.2845 12.0773 24.0054 12.0675L19.251 11.9016L17.624 7.43109C17.5285 7.16872 17.2792 6.99414 17 6.99414C16.7208 6.99414 16.4715 7.16872 16.376 7.43109L14.7489 11.9016L9.99446 12.0676C9.71549 12.0773 9.47237 12.2606 9.38604 12.526C9.29978 12.7916 9.38883 13.0827 9.60877 13.2546L13.3577 16.1834L12.0463 20.7564C11.9693 21.0248 12.0684 21.3126 12.2943 21.4767C12.5202 21.6408 12.8246 21.6462 13.056 21.49L17.0001 18.8297L20.944 21.4901C21.0563 21.5659 21.1859 21.6036 21.3153 21.6036C21.4525 21.6036 21.5895 21.5611 21.7057 21.4767C21.9314 21.3127 22.0306 21.0248 21.9536 20.7564ZM17.3713 17.4782C17.2591 17.4025 17.1295 17.3647 17 17.3647C16.8704 17.3647 16.7409 17.4025 16.6286 17.4782L13.8259 19.3687L14.7578 16.119C14.8325 15.8587 14.7416 15.5793 14.5283 15.4126L11.8642 13.3313L15.2429 13.2134C15.5134 13.2039 15.7512 13.0312 15.8437 12.7768L17 9.59999L18.1563 12.7769C18.2488 13.0313 18.4866 13.204 18.7571 13.2134L22.1356 13.3314L19.4716 15.4127C19.2583 15.5793 19.1674 15.8588 19.2421 16.119L20.1739 19.3687L17.3713 17.4782Z" fill="#87B7FF"/>
    <path d="M17 5.30467C17.3668 5.30467 17.6641 5.00737 17.6641 4.6406V1.65259C17.6641 1.28583 17.3668 0.988525 17 0.988525C16.6332 0.988525 16.3359 1.28583 16.3359 1.65259V4.6406C16.3359 5.00737 16.6332 5.30467 17 5.30467Z" fill="#87B7FF"/>
    <path d="M5.10851 8.90137L7.69617 10.3954C7.80076 10.4558 7.91491 10.4845 8.0276 10.4845C8.2571 10.4845 8.48029 10.3654 8.60328 10.1523C8.78669 9.83471 8.67785 9.42857 8.36023 9.24522L5.77258 7.75121C5.45496 7.5678 5.04882 7.67664 4.86547 7.99426C4.68205 8.31181 4.79089 8.71802 5.10851 8.90137Z" fill="#87B7FF"/>
    <path d="M2.53849 7.41683C2.63863 7.47075 2.7464 7.49632 2.85272 7.49632C3.08913 7.49632 3.31803 7.36968 3.43796 7.14696C3.61188 6.82402 3.49102 6.42127 3.16815 6.24742L3.16775 6.24722C2.84495 6.0733 2.44233 6.19429 2.26841 6.51716C2.09456 6.84009 2.21555 7.24298 2.53849 7.41683Z" fill="#87B7FF"/>
    <path d="M2.50485 22.602L2.50445 22.6023C2.19207 22.7945 2.09492 23.2034 2.28717 23.5158C2.41261 23.7196 2.63035 23.8318 2.85341 23.8318C2.97221 23.8318 3.09247 23.8 3.20098 23.7332C3.51329 23.541 3.61071 23.132 3.41846 22.8196C3.22622 22.5072 2.81715 22.4098 2.50485 22.602Z" fill="#87B7FF"/>
    <path d="M8.60334 19.8476C8.42 19.5299 8.01379 19.421 7.69623 19.6045L5.10851 21.0985C4.79089 21.2819 4.68205 21.688 4.86547 22.0056C4.98845 22.2187 5.21164 22.3378 5.44114 22.3378C5.55377 22.3378 5.66799 22.3091 5.77258 22.2487L8.36023 20.7547C8.67792 20.5713 8.78669 20.1651 8.60334 19.8476Z" fill="#87B7FF"/>
    <path d="M17 30.6714C16.6332 30.6714 16.3359 30.9687 16.3359 31.3354V31.3359C16.3359 31.7027 16.6332 31.9998 17 31.9998C17.3668 31.9998 17.6641 31.7022 17.6641 31.3354C17.6641 30.9687 17.3668 30.6714 17 30.6714Z" fill="#87B7FF"/>
    <path d="M17 24.6953C16.6332 24.6953 16.3359 24.9926 16.3359 25.3594V28.3474C16.3359 28.7142 16.6332 29.0115 17 29.0115C17.3668 29.0115 17.6641 28.7142 17.6641 28.3474V25.3594C17.6641 24.9926 17.3668 24.6953 17 24.6953Z" fill="#87B7FF"/>
    <path d="M31.462 22.5829C31.1391 22.4091 30.7364 22.5299 30.5624 22.8527C30.3885 23.1757 30.5094 23.5784 30.8322 23.7523L30.8326 23.7525C30.9328 23.8064 31.0405 23.8319 31.1467 23.8319C31.3831 23.8319 31.612 23.7053 31.732 23.4825C31.9059 23.1596 31.7849 22.7568 31.462 22.5829Z" fill="#87B7FF"/>
    <path d="M28.8915 21.0985L26.3038 19.6045C25.9862 19.4211 25.5801 19.53 25.3967 19.8475C25.2133 20.1651 25.3221 20.5713 25.6398 20.7546L28.2274 22.2486C28.332 22.3091 28.4462 22.3377 28.5589 22.3377C28.7884 22.3377 29.0115 22.2186 29.1345 22.0056C29.3179 21.688 29.2092 21.2818 28.8915 21.0985Z" fill="#87B7FF"/>
    <path d="M28.2274 7.75121L25.6398 9.24522C25.3221 9.42857 25.2133 9.83471 25.3967 10.1523C25.5197 10.3654 25.7429 10.4845 25.9724 10.4845C26.085 10.4845 26.1992 10.4557 26.3038 10.3954L28.8915 8.90137C29.2091 8.71802 29.3179 8.31188 29.1345 7.99426C28.9512 7.67664 28.545 7.5678 28.2274 7.75121Z" fill="#87B7FF"/>
    <path d="M31.1477 7.49629C31.2665 7.49629 31.3867 7.46448 31.4952 7.39768L31.4956 7.39741C31.8079 7.20516 31.9051 6.7963 31.7128 6.48393C31.5205 6.17168 31.1114 6.0744 30.799 6.26658C30.4866 6.45882 30.3893 6.86782 30.5815 7.1802C30.707 7.384 30.9247 7.49629 31.1477 7.49629Z" fill="#87B7FF"/>
    <path d="M9.75108 3.77235C9.87406 3.98538 10.0973 4.10452 10.3268 4.10452C10.4394 4.10452 10.5536 4.07576 10.6582 4.0154C10.9758 3.83205 11.0846 3.42591 10.9012 3.10829L9.40723 0.520639C9.22388 0.202951 8.81767 0.0941777 8.50012 0.277592C8.1825 0.460939 8.07366 0.86708 8.25707 1.1847L9.75108 3.77235Z" fill="#87B7FF"/>
    <path d="M11.2355 6.34323C11.3554 6.56596 11.5841 6.69239 11.8205 6.69239C11.9269 6.69239 12.0348 6.66676 12.1349 6.61284C12.4578 6.43892 12.5786 6.03597 12.4046 5.7131C12.2308 5.39023 11.8281 5.26937 11.5051 5.44329C11.1822 5.61714 11.0614 6.0199 11.2353 6.34283L11.2355 6.34323Z" fill="#87B7FF"/>
    <path d="M5.97607 15C5.97607 15.3668 6.27338 15.6641 6.64014 15.6641H6.64067C7.00743 15.6641 7.30453 15.3668 7.30453 15C7.30453 14.6332 7.00696 14.3359 6.6402 14.3359C6.27344 14.3359 5.97607 14.6332 5.97607 15Z" fill="#87B7FF"/>
    <path d="M3.65208 14.3359H0.664062C0.297301 14.3359 0 14.6332 0 15C0 15.3668 0.297301 15.6641 0.664062 15.6641H3.65208C4.01884 15.6641 4.31614 15.3668 4.31614 15C4.31614 14.6332 4.01884 14.3359 3.65208 14.3359Z" fill="#87B7FF"/>
    <path d="M10.6582 25.9845C10.3406 25.8013 9.93449 25.91 9.75108 26.2276L8.25707 28.8152C8.07366 29.1329 8.1825 29.539 8.50012 29.7224C8.60471 29.7828 8.71886 29.8115 8.83155 29.8115C9.06105 29.8115 9.28424 29.6923 9.40723 29.4793L10.9012 26.8917C11.0846 26.5741 10.9758 26.1679 10.6582 25.9845Z" fill="#87B7FF"/>
    <path d="M12.1681 23.4061C11.8557 23.214 11.4466 23.3115 11.2544 23.6239C11.0621 23.9363 11.1596 24.3453 11.4719 24.5375C11.5804 24.6043 11.7006 24.6361 11.8193 24.6361C12.0422 24.6361 12.26 24.5238 12.3855 24.32L12.3857 24.3196C12.578 24.0072 12.4804 23.5984 12.1681 23.4061Z" fill="#87B7FF"/>
    <path d="M22.7643 23.6565C22.5904 23.3337 22.1879 23.2131 21.8649 23.3869C21.542 23.5608 21.4213 23.9637 21.5952 24.2866C21.7151 24.5093 21.944 24.636 22.1804 24.636C22.2867 24.636 22.3945 24.6104 22.4946 24.5565C22.8176 24.3826 22.9384 23.9799 22.7645 23.6569L22.7643 23.6565Z" fill="#87B7FF"/>
    <path d="M24.249 26.2275C24.0657 25.9098 23.6595 25.8009 23.3419 25.9844C23.0243 26.1678 22.9155 26.5739 23.0989 26.8915L24.5929 29.4792C24.7159 29.6922 24.939 29.8113 25.1685 29.8113C25.2812 29.8113 25.3954 29.7826 25.5 29.7222C25.8176 29.5389 25.9264 29.1327 25.743 28.8151L24.249 26.2275Z" fill="#87B7FF"/>
    <path d="M28.0242 15C28.0242 14.6332 27.7269 14.3359 27.3601 14.3359H27.3597C26.9929 14.3359 26.6958 14.6332 26.6958 15C26.6958 15.3668 26.9934 15.6641 27.3601 15.6641C27.7269 15.6641 28.0242 15.3668 28.0242 15Z" fill="#87B7FF"/>
    <path d="M33.3362 14.3359H30.3481C29.9814 14.3359 29.6841 14.6332 29.6841 15C29.6841 15.3668 29.9814 15.6641 30.3481 15.6641H33.3362C33.7029 15.6641 34.0002 15.3668 34.0002 15C34.0002 14.6332 33.7029 14.3359 33.3362 14.3359Z" fill="#87B7FF"/>
    <path d="M21.8319 6.59376C21.9404 6.6605 22.0604 6.69231 22.1791 6.69231C22.4021 6.69231 22.6201 6.57989 22.7455 6.37602C22.9378 6.06364 22.8404 5.65465 22.5281 5.4624C22.2157 5.27009 21.8066 5.36764 21.6144 5.67988L21.6142 5.68028C21.422 5.99272 21.5195 6.40152 21.8319 6.59376Z" fill="#87B7FF"/>
    <path d="M23.3419 4.01536C23.4465 4.07579 23.5607 4.10447 23.6733 4.10447C23.9028 4.10447 24.126 3.98534 24.249 3.77231L25.743 1.18466C25.9264 0.867036 25.8176 0.460895 25.5 0.277548C25.1824 0.0942001 24.7763 0.202974 24.5929 0.520595L23.0989 3.10825C22.9155 3.4258 23.0243 3.83194 23.3419 4.01536Z" fill="#87B7FF"/>
  </g>
  <defs>
    <clipPath id="clip0_1345_4654">
      <rect width="34" height="34" fill="white"/>
    </clipPath>
  </defs>
</svg>
 </g>

  <!-- Dotted star decorations from the Second SVG -->
  <!-- Top Right -->
  <g transform="translate(80, 10) scale(0.6)">
    <path d="M0 0L3.2842 1.21582L4.5 4.5L5.7158 1.21582L9 0L5.7158 -1.21582L4.5 -4.5L3.2842 -1.21582L0 0Z" fill="#87B7FF"/>
  </g>
  

  <!-- Top Left -->
  <g transform="translate(10, 10) scale(0.6)">
    <path d="M0 0L2.55469 0.945312L3.5 3.5L4.44531 0.945312L7 0L4.44531 -0.945312L3.5 -3.5L2.55469 -0.945312L0 0Z" fill="#87B7FF"/>
  </g>

  <!-- Bottom Right -->
  <g transform="translate(80, 80) scale(0.6)">
    <path d="M0 0L3.2842 1.21582L4.5 4.5L5.7158 1.21582L9 0L5.7158 -1.21582L4.5 -4.5L3.2842 -1.21582L0 0Z" fill="#87B7FF"/>
  </g>
</svg>
