<svg width="136" height="131" viewBox="0 0 136 131" fill="none" xmlns="http://www.w3.org/2000/svg">
<g clip-path="url(#clip0_340_3570)">
<path d="M97.6003 14.9255C96.4837 15.4187 95.1338 14.7745 94.5781 13.5067C94.0273 12.2362 94.4796 10.8126 95.5939 10.3271C96.7106 9.83394 98.0605 10.4782 98.6162 11.746C99.1669 13.0164 98.7146 14.4401 97.6003 14.9255Z" fill="#A38439"/>
<path d="M68.0834 29.0405C67.9679 29.2454 67.522 29.2336 67.0995 29.0019C66.6643 28.7705 66.4133 28.4137 66.5233 28.1987C66.6388 27.9938 67.0847 28.0056 67.5072 28.2373C67.9424 28.4687 68.1961 28.8305 68.0834 29.0405Z" fill="#525236"/>
<path d="M85.8694 55.2906C84.1606 56.2787 81.9674 55.6884 80.9743 53.9701L80.3292 52.8479C79.3411 51.1269 79.9187 48.9423 81.6375 47.9487L82.8892 47.2271C84.598 46.239 86.7912 46.8293 87.7843 48.5476L88.4295 49.6698C89.4175 51.3908 88.8399 53.5754 87.1211 54.5689L85.8694 55.2906Z" fill="#A38439"/>
<path d="M45.6305 88.0301C43.2843 89.2978 40.3508 88.4142 39.0826 86.067C37.8144 83.7199 38.6879 80.7792 41.0292 79.5142C43.3704 78.2492 46.3088 79.1302 47.577 81.4773C48.8452 83.8244 47.9717 86.7651 45.6305 88.0301Z" fill="#A38439"/>
<path d="M65.7643 117.857C64.4786 118.552 62.8744 118.071 62.178 116.782C61.4815 115.493 61.9584 113.887 63.2441 113.193C64.5298 112.498 66.134 112.979 66.8304 114.268C67.5268 115.557 67.0499 117.162 65.7643 117.857Z" fill="#A38439"/>
</g>
<defs>
<clipPath id="clip0_340_3570">
<rect width="90" height="105" fill="white" transform="translate(92.7974 0.952759) rotate(61.6166)"/>
</clipPath>
</defs>
</svg>
