<svg width="22" height="22" viewBox="0 0 26 26" fill="none" xmlns="http://www.w3.org/2000/svg">
<path d="M16.279 17.0647C16.2659 16.9143 16.1777 16.7752 16.0467 16.6996L14.3757 15.7348V13.8037C14.3757 13.6362 14.2863 13.4813 14.1411 13.3976L12.2348 12.2975C12.0897 12.2139 11.9112 12.2138 11.7662 12.2974L9.85928 13.3978C9.71425 13.4815 9.6249 13.6363 9.6249 13.8037V15.7347L7.95287 16.6995C7.8077 16.7832 7.71826 16.938 7.71826 17.1056V19.3073C7.71826 19.4748 7.8077 19.6296 7.95287 19.7134L9.85928 20.8134C9.93179 20.8553 10.0127 20.8762 10.0937 20.8762C10.1746 20.8762 10.2555 20.8553 10.328 20.8134L12.0003 19.8485L13.6728 20.8135C13.7453 20.8553 13.8261 20.8762 13.9069 20.8762C13.9879 20.8762 14.0688 20.8553 14.1413 20.8134L16.0467 19.7132C16.1898 19.6306 16.281 19.4724 16.281 19.3073V17.1056C16.2811 17.0922 16.2802 17.078 16.279 17.0647ZM10.5624 14.0743L12.0002 13.2447L13.4382 14.0745V15.7347L12.0003 16.5644L10.5624 15.7348L10.5624 14.0743ZM10.0937 19.8662L8.65576 19.0365V17.3764L10.0937 16.5466L11.5316 17.3763V19.0366L10.0937 19.8662ZM13.9068 19.8662L12.4691 19.0366V17.3762L13.9068 16.5466L15.3436 17.3762V19.0366L13.9068 19.8662Z" fill="#87B7FF"/>
<path d="M22.6584 10.3661C23.0714 9.73641 23.0152 8.88248 22.5119 8.1375L20.4689 5.11266V3.31031C21.1725 3.10659 21.6887 2.45691 21.6887 1.68853C21.6886 0.757453 20.9312 0 20.0002 0H3.99887C3.06784 0 2.31039 0.757453 2.31039 1.68848C2.31039 2.45686 2.82653 3.10659 3.53012 3.31027V5.11256L1.48703 8.13764C0.984245 8.88291 0.928745 9.73706 1.34204 10.3667C1.38231 10.4281 1.42684 10.4853 1.4739 10.5396C1.20559 11.6356 1.06937 12.7684 1.06937 13.9113C1.06937 15.9019 1.46753 17.8045 2.25278 19.5663C3.00404 21.2518 4.10214 22.7457 5.42837 23.8866C5.5134 23.9597 5.62187 24 5.73404 24H18.2662C18.3784 24 18.4868 23.9597 18.5718 23.8866C19.8979 22.7459 20.9958 21.2519 21.7468 19.5662C22.5316 17.8047 22.9295 15.9021 22.9295 13.9113C22.9295 12.7645 22.7934 11.6323 22.5256 10.541C22.5732 10.4863 22.6177 10.4281 22.6584 10.3661ZM3.24789 1.68848C3.24789 1.27444 3.58478 0.9375 3.99887 0.9375H20.0001C20.4142 0.9375 20.7511 1.27444 20.7511 1.68848C20.7511 2.10253 20.4142 2.43947 20.0001 2.43947H14.1021C13.8433 2.43947 13.6334 2.64937 13.6334 2.90822C13.6334 3.16706 13.8433 3.37697 14.1021 3.37697H19.5314V4.7873H4.46762V3.37702H9.89289C10.1517 3.37702 10.3616 3.16711 10.3616 2.90827C10.3616 2.64942 10.1517 2.43952 9.89289 2.43952H3.99887C3.58478 2.43952 3.24789 2.10258 3.24789 1.68848ZM18.0902 23.0625H5.91015C3.42723 20.8564 2.00692 17.5319 2.00692 13.9113C2.00692 12.9441 2.1114 11.985 2.31723 11.0524C2.56764 11.1146 2.83909 11.1233 3.11696 11.0715C3.53649 10.9925 3.86153 10.7544 4.13799 10.4598C4.5879 10.8619 5.13357 11.0846 5.69546 11.0845H5.69631C6.26504 11.0843 6.81714 10.8558 7.26962 10.4441C7.7237 10.8641 8.26899 11.0903 8.84664 11.0905H8.84743C9.42568 11.0905 9.97178 10.864 10.4266 10.4433C10.8779 10.8519 11.43 11.0786 12.0002 11.0786C12.5703 11.0786 13.1223 10.852 13.5736 10.4435C14.0277 10.8638 14.5734 11.0903 15.1512 11.0905H15.152C15.7299 11.0905 16.2759 10.8643 16.7305 10.4439C17.1833 10.856 17.7357 11.0845 18.3048 11.0845C18.8666 11.0845 19.4123 10.8617 19.8617 10.4595C20.1388 10.7542 20.464 10.9925 20.883 11.0716C21.0055 11.0945 21.1268 11.1056 21.2457 11.1056C21.3962 11.1056 21.5424 11.0874 21.6823 11.0527C21.8877 11.9816 21.9921 12.9406 21.9921 13.9113C21.9921 17.5326 20.5723 20.857 18.0902 23.0625ZM21.8744 9.85205C21.7095 10.1035 21.4033 10.2151 21.0557 10.1502C20.8139 10.1045 20.5898 9.91261 20.2563 9.46556C20.1678 9.34697 20.0286 9.27708 19.8805 9.27708C19.8805 9.27708 19.8804 9.27708 19.8803 9.27708C19.7323 9.27712 19.593 9.34716 19.5046 9.46589C19.1775 9.90511 18.7514 10.147 18.3047 10.147C17.858 10.147 17.4319 9.90511 17.1048 9.46589C17.0164 9.34716 16.8771 9.27717 16.7291 9.27708C16.729 9.27708 16.7289 9.27708 16.7288 9.27708C16.5809 9.27708 16.4416 9.34692 16.3531 9.46552C16.0222 9.90891 15.5957 10.1531 15.1518 10.1531C15.1517 10.1531 15.1516 10.1531 15.1514 10.1531C14.7079 10.1529 14.2818 9.90881 13.9517 9.46575C13.8632 9.34706 13.7239 9.27713 13.5758 9.27713C13.4277 9.27713 13.2884 9.34706 13.1999 9.4658C12.8754 9.90127 12.4493 10.1411 12 10.1411C11.5506 10.1411 11.1245 9.90127 10.8 9.4658C10.7116 9.34711 10.5723 9.27717 10.4243 9.27713C10.4243 9.27713 10.4242 9.27713 10.4241 9.27713C10.2762 9.27713 10.1369 9.34692 10.0484 9.46556C9.71748 9.90895 9.29092 10.1531 8.8471 10.1531C8.84696 10.1531 8.84682 10.1531 8.84668 10.1531C8.40315 10.1529 7.9771 9.90886 7.64696 9.4658C7.55846 9.34706 7.4191 9.27712 7.27098 9.27717C7.12285 9.27722 6.98349 9.3472 6.89504 9.46598C6.56813 9.90506 6.14214 10.1469 5.69556 10.1471C5.69537 10.1471 5.69523 10.1471 5.69509 10.1471C5.24814 10.1471 4.82157 9.90511 4.49387 9.4657C4.40537 9.34706 4.2661 9.27717 4.11807 9.27717C4.11793 9.27717 4.11784 9.27717 4.1177 9.27717C3.96957 9.27731 3.83021 9.34739 3.74185 9.46627C3.40998 9.91275 3.18606 10.1045 2.9439 10.1501C2.59651 10.2148 2.29042 10.1037 2.12542 9.85242C1.9202 9.53977 1.97195 9.09478 2.2637 8.66222L4.24754 5.72489H7.37476L6.28913 7.25878C6.13956 7.47014 6.18962 7.76264 6.40093 7.91217C6.4832 7.97039 6.5777 7.99837 6.67135 7.99837C6.81831 7.99837 6.96306 7.92942 7.05437 7.80037L8.52334 5.72489H11.531V7.52958C11.531 7.78842 11.7409 7.99833 11.9998 7.99833C12.2586 7.99833 12.4685 7.78842 12.4685 7.52958V5.72489H15.4762L16.9452 7.80037C17.0365 7.92942 17.1812 7.99837 17.3282 7.99837C17.4218 7.99837 17.5164 7.97039 17.5986 7.91217C17.8099 7.76264 17.86 7.47009 17.7104 7.25878L16.6248 5.72489H19.7507L21.7346 8.66231C22.0272 9.09473 22.0793 9.53958 21.8744 9.85205Z" fill="#87B7FF"/>
<path d="M11.9975 3.37701H12.0002C12.259 3.37701 12.4676 3.16711 12.4676 2.90826C12.4676 2.64942 12.2564 2.43951 11.9976 2.43951C11.7387 2.43951 11.5288 2.64942 11.5288 2.90826C11.5288 3.16711 11.7387 3.37701 11.9975 3.37701Z" fill="#87B7FF"/>
</svg>
