<svg xmlns="http://www.w3.org/2000/svg" width="136" height="131" viewBox="0 0 136 131" fill="none">
<g clip-path="url(#clip0_1340_2581)">
<path d="M97.6003 14.9254C96.4837 15.4186 95.1338 14.7743 94.5781 13.5066C94.0273 12.2361 94.4796 10.8125 95.5939 10.327C96.7106 9.83382 98.0605 10.4781 98.6162 11.7458C99.1669 13.0163 98.7146 14.4399 97.6003 14.9254Z" fill="#87B7FF"/>
<path d="M68.0834 29.0405C67.9679 29.2454 67.522 29.2336 67.0995 29.0019C66.6643 28.7705 66.4133 28.4137 66.5233 28.1987C66.6388 27.9938 67.0847 28.0056 67.5072 28.2373C67.9424 28.4687 68.1961 28.8305 68.0834 29.0405Z" fill="#525236"/>
<path d="M85.8694 55.2905C84.1606 56.2786 81.9674 55.6883 80.9743 53.97L80.3292 52.8477C79.3411 51.1268 79.9187 48.9421 81.6375 47.9486L82.8892 47.227C84.598 46.2388 86.7912 46.8292 87.7843 48.5474L88.4295 49.6697C89.4175 51.3907 88.8399 53.5753 87.1211 54.5688L85.8694 55.2905Z" fill="#87B7FF"/>
<path d="M45.6305 88.03C43.2843 89.2977 40.3508 88.4141 39.0826 86.0669C37.8144 83.7198 38.6879 80.7791 41.0292 79.5141C43.3704 78.2491 46.3088 79.13 47.577 81.4772C48.8452 83.8243 47.9717 86.765 45.6305 88.03Z" fill="#87B7FF"/>
<path d="M65.7643 117.857C64.4786 118.552 62.8744 118.071 62.178 116.782C61.4815 115.493 61.9584 113.887 63.2441 113.193C64.5298 112.498 66.134 112.979 66.8304 114.268C67.5268 115.557 67.0499 117.162 65.7643 117.857Z" fill="#87B7FF"/>
</g>
<defs>
<clipPath id="clip0_1340_2581">
<rect width="90" height="105" fill="white" transform="translate(92.7974 0.952637) rotate(61.6166)"/>
</clipPath>
</defs>
</svg>