<svg width="96" height="191" viewBox="0 0 96 191" fill="none" xmlns="http://www.w3.org/2000/svg">
<path d="M102.469 41.997L97.2294 37.3299C97.0854 37.2011 96.9554 37.0721 96.8323 36.9222C96.4526 36.4619 95.9863 36.2504 95.4581 36.277C95.1468 36.2958 95.0425 36.4571 95.1521 36.7401L96.7264 40.9568L97.8455 45.0985C97.8455 45.0985 97.8491 45.1159 97.8421 45.1159L97.608 45.2114C97.5033 45.2608 97.4192 45.2262 97.3733 45.1179C96.5088 43.3615 95.5117 41.6686 94.3924 40.0497C87.8878 30.6153 81.8217 20.5773 74.987 11.7146C73.6504 9.98461 72.8781 10.2152 72.6805 12.3888C72.2954 16.6066 75.4214 20.3761 77.3773 23.8005C77.9341 24.7639 78.8869 26.7614 80.2429 29.7788C83.6892 37.4413 91.0189 43.3315 97.4691 48.0216C97.5568 48.0877 97.5711 48.1576 97.5119 48.2383L97.505 48.2454C97.4459 48.3401 97.376 48.3543 97.2848 48.2987L84.7505 40.2991C82.0209 38.4979 79.245 38.1488 76.4293 39.238C76.1988 39.3299 75.9328 39.324 75.7049 39.2164C75.13 38.9389 74.5596 38.9448 74.0115 39.2234C73.8508 39.3011 73.7746 39.4833 73.8313 39.658C73.8915 39.8222 74.0564 39.93 74.2347 39.9048C74.6159 39.8438 74.9109 40.1154 75.1267 40.7058C75.1939 40.877 75.1701 41.0416 75.0763 41.1994C75.0276 41.2836 74.9719 41.3538 74.8882 41.4241C74.693 41.5859 74.5923 41.7927 74.6003 42.0446C74.6127 42.4959 74.4918 42.8918 74.2309 43.2602C74.0256 43.5375 74.1917 43.9391 74.5418 43.9937C75.4416 44.1195 76.1747 44.5608 76.7411 45.3108C76.8959 45.5201 77.1029 45.6697 77.3587 45.7561C77.8072 45.9082 78.2 46.1446 78.5442 46.4511C80.5669 47.384 81.9757 47.959 82.7708 48.1692C88.3891 49.6507 93.7824 51.7246 98.9613 54.408C100.977 55.4529 102.365 60.2022 103.569 62.1147C105.239 64.774 104.942 65.0096 102.691 62.825C100.277 60.4871 97.2852 58.6555 93.7249 57.3265C91.1703 56.3817 88.8696 55.0546 86.2769 54.1835C85.7443 53.9967 85.3951 54.1801 85.2364 54.7336C83.7529 59.869 91.3012 64.3937 95.0181 66.3798C95.3512 66.5569 95.3706 67.0222 95.0495 67.2265L94.8611 67.3461C94.4353 67.6068 93.9036 67.637 93.4582 67.4044C90.7408 65.9845 82.088 59.1445 81.7155 56.1825C81.4189 53.8044 81.1222 52.2836 80.8396 51.62C80.2532 50.2508 79.5241 49.9389 78.6385 50.6983C78.2376 51.0464 78.0403 51.5755 78.1299 52.1035C78.3527 53.5161 78.5158 54.9255 78.6161 56.3352C78.668 57.0557 78.5685 57.5355 78.314 57.771C77.962 58.0908 77.7168 58.0288 77.5785 57.571C77.0501 55.8552 76.5391 54.0869 76.0453 52.2799C75.9174 51.7906 75.5347 51.4668 74.8972 51.3084C74.6555 51.2429 74.5544 51.3308 74.5834 51.5896C74.7751 53.1109 74.9631 54.5937 75.1579 56.0274C75.4755 58.4054 76.6467 59.8736 78.6574 60.4322C81.6103 61.2493 83.5899 62.7807 86.1847 64.1487C86.2022 64.1521 86.2023 64.1661 86.1989 64.1837L86.1157 64.3729C86.0567 64.4886 85.9239 64.5452 85.7942 64.4932C81.9529 62.8855 77.9487 61.6667 74.6948 59.1223C72.0937 57.0861 70.0296 54.5648 66.8585 53.4337C66.3959 53.2676 65.9074 53.5986 65.8814 54.0885C65.5337 59.7441 68.613 63.2235 72.5747 66.8741C76.3713 70.382 83.565 71.2166 88.0066 69.8584C88.4923 69.7129 88.9751 69.69 89.4443 69.7861C89.882 69.8788 89.8895 70.0047 89.4703 70.1533C84.3064 71.9799 79.7993 71.0082 74.3748 70.7015C69.6257 70.4375 63.57 68.9473 59.7471 69.2813C54.651 69.7326 49.5544 70.0438 44.4468 70.2257C42.9425 70.2808 41.4655 70.1609 40.0402 69.8623C39.5366 69.9064 39.1977 70.0373 38.9991 70.2445C38.811 70.4482 38.8327 70.6231 39.0677 70.7726C39.6886 71.1655 40.3369 71.3972 41.0194 71.4469C41.3169 71.4702 41.5588 71.6056 41.7417 71.8358C42.2517 72.474 42.8763 72.9263 43.6226 73.1857C44.6843 73.5557 46.0329 73.0533 47.3326 73.4433C47.5918 73.5262 47.8507 73.5183 48.1023 73.4403C50.1255 72.7917 51.9931 72.5951 53.7156 72.8539C54.1777 72.922 54.4239 73.2359 54.4368 73.8062C54.4447 74.0371 54.3263 74.1706 54.0884 74.1785C53.2698 74.2169 52.4585 74.2971 51.6613 74.4263C50.7452 74.577 49.9335 74.6224 49.2335 74.5553C47.8474 74.428 46.0079 73.8092 45.0868 75.279C44.9407 75.5105 44.6929 75.655 44.4131 75.6631C40.4038 75.7915 36.4076 75.6609 32.4207 75.2679C31.4546 75.1739 30.5576 75.6989 29.3579 74.955C29.1019 74.7986 28.8605 74.8171 28.6233 74.993L27.591 75.823C30.3847 76.1894 33.3753 75.9567 35.7732 76.2513C40.114 76.7723 44.156 77.8475 48.9134 76.7259C52.388 75.9069 54.7806 75.7291 58.3471 75.9979C58.5781 76.018 58.8262 75.9575 59.0496 75.8096C59.1857 75.7216 59.3918 75.6753 59.6718 75.6811C59.9972 75.6833 60.1591 75.9276 60.0274 76.236C59.8957 76.5445 59.533 76.8048 59.1937 76.8237C58.0989 76.9087 57.0743 77.0703 56.1411 77.3085C55.4071 77.5005 54.4746 77.9207 53.3471 78.5586C50.2926 80.2821 46.7813 81.5176 44.1559 83.7921C42.5939 85.1421 42.827 85.645 44.8619 85.2937C51.4806 84.1575 57.2841 81.3066 62.2549 76.7447C63.2239 75.852 64.7939 76.4545 64.9112 77.7626C65.5491 84.8837 70.6504 89.9852 75.4778 94.8569C75.7378 95.1148 75.6242 95.5666 75.2642 95.6695C74.4185 95.9039 73.6555 95.851 72.9718 95.5215C69.4939 93.8072 65.9918 92.1595 62.4479 90.554C59.8959 89.4029 59.0291 92.1951 60.3378 93.9322C61.9209 96.032 63.3044 97.216 64.4987 97.5015C66.2393 97.9107 67.7894 98.8071 69.4424 99.1643C74.5343 100.263 79.3735 102.024 83.9774 104.444C84.1914 104.559 84.248 104.733 84.144 104.951L84.0574 105.157C84.0158 105.249 83.9458 105.27 83.8477 105.235C80.9948 104.057 77.8919 103.37 74.5392 103.174C73.3913 103.109 72.434 103.442 71.6673 104.179C71.4651 104.369 71.2311 104.479 70.9583 104.515C68.7342 104.797 69.2811 107.618 69.795 109.243C69.8695 109.491 69.881 109.74 69.8296 109.995C69.5855 111.049 69.6072 112.074 69.8982 113.067C70.4694 114.999 69.9426 115.362 68.3282 114.165C67.6684 113.664 66.9286 113.307 66.1019 113.079C65.2683 112.852 64.5546 113.726 64.9461 114.504C66.6181 117.8 68.8817 118.596 71.7339 120.456C71.9725 120.609 72.0187 120.808 71.8903 121.057L71.7757 121.271C71.7097 121.394 71.6154 121.433 71.4857 121.36C70.7038 120.961 69.8398 121.01 69.1142 120.68C67.5613 119.976 65.1263 118.349 63.4129 118.608C63.1682 118.651 62.9267 118.62 62.7024 118.53L55.8927 115.776C56.4225 116.999 55.405 117.147 52.847 116.219C52.402 116.064 52.0104 116.135 51.6828 116.444C51.5468 116.567 51.4775 116.722 51.4783 116.911L51.4763 117.271C51.4706 117.607 51.3067 117.737 50.974 117.658C50.6062 117.565 50.3333 117.58 50.1587 117.672C51.3682 118.244 53.2526 118.712 55.8117 119.069C61.3186 119.827 66.9339 124.003 73.4753 124.476C74.9452 124.575 76.2689 124.843 77.4463 125.265C79.1702 125.866 80.814 126.556 82.6624 126.807C89.0515 127.687 94.6952 128.539 101.091 131.029C102.02 131.385 104.041 131.975 107.148 132.778C107.645 132.909 108.259 133.288 108.526 133.531C109.523 134.451 109.37 134.725 108.06 134.345C104.957 133.434 101.772 132.492 98.5213 131.525C95.3544 130.58 92.1324 129.844 88.8449 129.336C83.3936 128.48 77.0984 126.613 71.6149 128.151C71.4366 128.197 71.3847 128.313 71.4658 128.477C71.5011 128.547 71.5398 128.606 71.589 128.648C71.6065 128.651 71.624 128.662 71.6345 128.658L76.3232 128.695C76.8026 128.696 77.1333 129.171 76.9882 129.626L76.9123 129.871C76.8535 130.036 76.7522 130.089 76.5946 130.037C76.2968 129.944 76.0134 129.956 75.7341 130.083C75.4756 130.203 75.5052 130.587 75.7924 130.656L80.0758 131.685C80.2089 131.719 80.2898 131.848 80.2659 131.978L80.2144 132.22C80.1491 132.51 79.9677 132.644 79.6667 132.617C77.9095 132.429 76.1552 132.103 74.411 131.663C71.4127 130.891 69.1433 131.24 66.2833 131.748L70.1808 131.662C70.4816 131.654 70.51 131.738 70.2517 131.9C69.3968 132.453 68.4917 132.747 67.5261 132.779C65.8924 132.845 64.976 132.891 64.7872 132.927C62.0847 133.466 59.8359 133.724 57.2238 134.966C56.1063 135.495 54.849 136.039 53.4447 136.598C53.2421 136.669 53.1556 136.911 53.2579 137.11L53.4412 137.445C53.6493 137.839 53.9611 137.946 54.3663 137.77L60.2937 135.265C60.4369 135.205 60.6013 135.194 60.7519 135.245C61.4281 135.456 62.0609 135.366 62.6611 134.958C62.8739 134.813 63.1116 134.742 63.3565 134.741L69.8151 134.638C71.6732 134.676 73.5451 134.679 75.4449 134.653C76.0082 134.648 76.2658 134.346 76.2214 133.751C76.1993 133.478 76.3143 133.362 76.5873 133.403C80.2287 134.011 83.5334 133.581 87.0889 134.585C88.9384 135.095 91.6075 134.962 93.1851 135.711C94.6505 136.412 95.8591 136.781 96.8076 136.837C96.9755 136.836 97.1333 136.923 97.2353 137.059C97.2881 137.125 97.3373 137.195 97.3831 137.254C97.4007 137.286 97.4323 137.303 97.4603 137.31L99.5442 137.823C100.066 137.95 100.07 138.087 99.5529 138.243C98.0746 138.672 97.123 137.826 95.9919 137.589C92.2694 136.81 89.8673 136.358 88.7576 136.24C87.529 136.109 86.5798 137.578 85.7457 138.096C84.1717 139.079 82.6804 139.725 81.2681 140.032C80.0445 140.289 80.0109 140.66 81.171 141.127C81.8299 141.391 82.3577 141.252 82.7683 140.705C82.9214 140.501 83.1693 140.385 83.4212 140.376C87.9552 140.239 92.4004 139.755 96.9097 139.572C100.639 139.424 108.556 140.781 110.94 143.857C112.446 145.796 114.083 147.504 115.676 149.37C115.855 149.582 116.087 149.728 116.353 149.804C117.337 150.098 118.308 150.412 119.264 150.747C120.908 151.325 122.957 151.135 124.673 152.258C124.897 152.397 124.982 152.599 124.924 152.862C124.855 153.205 124.653 153.325 124.32 153.218C121.983 152.517 120.26 152.069 119.147 151.871C115.628 151.245 112.039 149.965 108.386 148.028C107.032 147.313 105.559 147.203 103.965 147.72C103.658 147.82 103.452 148.027 103.345 148.332L102.412 151.065C102.318 151.335 102.379 151.562 102.6 151.746C107.36 155.688 112.383 157.875 118.211 160.143C119.336 160.576 120.875 161.37 122.815 162.528C125.312 164.015 127.862 164.536 130.279 166.167C131.297 166.856 131.635 166.606 131.294 165.432C130.826 163.838 130.795 162.226 131.191 160.604C131.253 160.338 131.241 160.054 131.163 159.789C130.624 158.028 131.459 156.849 131.386 155.32C131.29 153.301 130.865 151.186 131.015 149.307C131.61 141.715 135.958 133.636 138.843 126.623C140.524 122.526 141.892 116.544 144.475 111.74C145.298 110.208 145.474 108.653 145.019 107.053C144.945 106.805 144.982 106.556 145.114 106.325C145.712 105.314 146.426 104.503 147.253 103.874C149.795 101.949 151.897 99.8098 153.563 97.4552C153.953 96.9078 154.009 96.1973 153.713 95.5897L153.575 95.3139C153.36 94.8774 152.765 94.8378 152.49 95.2273C150.831 97.6519 148.94 99.7835 146.813 101.626C142.866 105.043 140.844 108.466 138.973 113.036C137.802 115.896 136.814 118.087 135.998 119.626C132.724 125.815 128.283 134.108 128.207 141.274C128.197 142.044 128.015 142.087 127.669 141.402C126.695 139.482 127.485 137.484 126.43 135.4C124.293 131.182 121.1 128.168 116.869 126.363C115.559 125.808 112.751 125.582 111.677 124.74C109.533 123.051 109.758 122.634 112.348 123.495C117.487 125.199 124.857 127.978 127.6 133.201C127.738 133.47 128.119 133.43 128.216 133.15C129.029 130.785 130.364 128.75 130.189 126.193C130.063 124.451 129.852 123.287 129.534 122.693C127.552 118.923 126.151 114.953 125.325 110.783C125.243 110.381 125.05 110.308 124.74 110.579C124.594 110.705 124.493 110.863 124.445 111.066C124.362 111.374 124.198 111.435 123.942 111.25C122.622 110.283 122.043 109.012 122.208 107.447C122.218 107.317 122.186 107.174 122.119 107.052L119.98 103.383C119.857 103.163 119.902 103.118 120.127 103.236C121.606 104.042 122.112 105.408 122.95 106.664C123.059 106.828 123.106 107.02 123.096 107.219C123.046 107.818 123.324 108.247 123.941 108.518C124.537 108.788 125.154 108.201 124.917 107.59L123.81 104.687C123.764 104.558 123.791 104.41 123.892 104.309L124.14 104.059C124.244 103.954 124.339 103.964 124.42 104.1C125.202 105.489 125.551 106.895 126.581 108.104C129.545 111.574 130.733 115.393 131.756 120.102C131.813 120.333 131.719 120.427 131.481 120.393L131.215 120.353C130.963 120.312 130.738 120.131 130.649 119.89L127.854 112.28C127.787 112.095 127.608 111.98 127.419 111.981L127.006 111.983C126.754 111.984 126.657 112.11 126.707 112.355C127.282 115.141 128.251 117.838 129.63 120.44C130.476 122.046 130.913 123.489 130.914 124.78C130.926 125.921 131.227 126.01 131.832 125.042C133.421 122.499 134.743 119.803 135.788 116.929C138.199 110.324 142.06 104.682 147.359 100.021C148.858 98.6991 150.168 97.2032 151.277 95.5227C154.337 90.9056 157.39 86.2816 160.437 81.6506C161.355 80.2613 161.579 78.6579 161.124 76.8473C160.967 76.2462 160.249 75.9937 159.761 76.3666C153.217 81.3968 149.09 90.3008 144.582 96.8972C143.936 97.8445 143.69 97.7476 143.85 96.6098C144.323 93.2664 145.202 90.0053 146.501 86.8195C146.958 85.684 147.783 84.6834 148.471 83.547C148.777 83.0349 148.631 82.3882 148.15 82.0508C147.659 81.7169 147.112 81.5022 146.513 81.4172C146.198 81.3765 145.88 81.4723 145.643 81.6762C141.62 85.2685 139.445 93.3073 139.229 98.5426C139.12 101.111 138.539 103.503 137.477 105.719C137.3 106.087 136.779 106.079 136.599 105.712C135.421 103.296 134.085 101.051 132.593 98.9791C131.397 97.3326 128.424 96.0362 128.481 93.5902C128.545 90.35 130.213 87.586 131.415 84.6735C131.813 83.7097 131.792 82.8316 131.362 82.0146C130.886 81.1033 129.602 81.0561 129.056 81.9295C128.246 83.2239 128.363 84.518 127.679 85.6929C126.216 88.2496 124.704 90.5476 124.632 93.592C124.626 93.7739 124.48 93.9215 124.298 93.9292L124.074 93.9301C124.004 93.9444 123.965 93.9061 123.961 93.8327C123.501 89.146 123.948 84.5361 125.276 79.9996C125.718 78.4932 125.671 76.3347 125.12 73.5238C124.902 72.3736 124.373 72.2183 123.544 73.0334L123.011 73.5569C122.261 74.2913 121.898 75.3179 122.021 76.3601C122.261 78.4515 122.071 80.674 121.44 83.0593C120.985 84.7896 121.038 86.6614 121.593 88.6815C121.671 88.9681 121.455 89.2628 121.147 89.2641L120.93 89.258C120.825 89.2585 120.758 89.2062 120.716 89.1084C119.231 85.3147 119.009 81.4353 120.046 77.5018C120.201 76.9029 119.982 76.5049 119.397 76.3149L117.95 75.8484C117.393 75.6583 117.107 75.8693 117.088 76.4572C116.963 80.9678 117.521 86.4623 119.899 90.3259C121.234 92.5142 121.967 93.7218 122.087 93.9663C123.251 96.4177 124.356 98.8729 125.402 101.332C125.455 101.468 125.438 101.619 125.362 101.738L124.945 102.397C124.826 102.573 124.739 102.57 124.672 102.364C123.498 98.579 121.433 95.0256 119.318 92.0567C116.024 87.4446 114.648 82.0725 116.521 76.4036C116.767 75.6713 116.491 74.9027 115.69 74.0803C111.951 70.2398 110.368 65.4772 108.118 61.3018C104.86 55.262 102.973 48.8318 102.462 42.0041M87.1917 80.201C88.034 82.5348 88.8916 85.1905 89.0699 87.723C89.1783 89.4335 89.4495 90.72 89.8728 91.565C90.9418 93.7194 92.4573 95.5431 94.4193 97.0291C94.7948 97.304 95.1151 97.7681 95.3766 98.4038C95.4826 98.6623 95.399 98.7466 95.1397 98.6427C91.5019 97.195 88.8169 92.5944 87.55 89.1007C86.9697 87.5006 86.406 86.5652 85.0312 85.7801C83.6038 84.9637 83.1295 85.3435 83.6049 86.9231C83.7361 87.3599 83.8507 88.0172 83.9628 88.895C84.4082 92.5705 88.1204 96.831 90.9298 98.4815C94.837 100.775 100.644 103.141 102.098 107.753C102.711 109.693 103.309 110.488 104.791 111.686C104.991 111.849 105.233 111.957 105.488 112.015C105.94 112.108 106.231 112.313 106.355 112.638C107.377 115.163 108.207 118.155 108.83 121.616C109.156 123.438 109.694 124.94 110.441 126.127C111.66 128.081 113.084 129.891 114.697 131.575C115.948 132.871 117.519 135.447 119.417 139.302C120.133 140.758 121.974 143.511 124.927 147.561C126.429 149.616 127.663 151.913 128.886 154.011C129.309 154.723 129.11 155 128.298 154.829C127.541 154.678 126.954 154.04 126.537 152.915C126.24 152.111 125.922 151.504 125.588 151.075C123.2 148.037 120.774 145.038 118.288 142.092C115.974 139.351 114.173 136.101 112.644 132.647C111.634 130.37 110.418 128.223 108.989 126.178C106.497 122.613 106.871 119.102 105.848 115.208C105.194 112.706 103.088 111.07 101.334 109.177C101.169 108.999 101.059 108.765 101.034 108.517C100.802 106.551 100.054 105.127 98.791 104.25C96.3138 102.539 93.1413 101.079 89.2771 99.8737C85.1607 98.5995 81.215 97.1741 79.4589 92.9861C78.4872 90.6633 80.1979 88.8754 81.2035 87.5032C82.6406 85.5554 82.204 84.9134 79.8974 85.5597C78.9573 85.819 77.9573 85.991 76.8975 86.0898C76.6002 86.1155 76.3375 86.0502 76.0919 85.8902C73.4924 84.2179 71.6183 81.9687 70.4872 79.1532C70.2963 78.6712 70.6439 78.1379 71.1582 78.1183C73.5545 78.021 75.9759 78.9103 77.9148 79.0213C80.2071 79.1484 82.4806 78.9712 84.7355 78.4966C86.1968 78.1897 87.4703 77.3413 88.9201 76.786C91.8581 75.6578 94.3669 73.9716 97.1675 72.6446C100.496 71.074 102.989 68.9959 106.014 67.0556C107.986 65.7914 111 69.4983 111.534 70.9272C112.659 73.8967 110.139 77.9833 110.338 81.3099C110.387 82.0899 110.393 82.8841 110.348 83.689C110.331 83.9305 110.017 84.0088 109.886 83.8099L107.647 80.3622C107.46 80.0725 107.491 79.817 107.749 79.592C110.008 77.6234 109.771 74.3914 108.738 71.7435C108.201 70.3461 107.302 69.7059 106.047 69.8055C105.749 69.8312 105.522 69.9686 105.345 70.2038C104.016 72.0566 103.458 74.0953 103.659 76.3232C103.685 76.6205 103.609 76.8869 103.421 77.1116C102.996 77.6451 102.939 78.2506 103.26 78.9106C103.373 79.141 103.427 79.3963 103.417 79.6447C103.162 86.5701 108.578 94.116 114.243 97.5393C115.884 98.5332 117.536 100.248 119.201 102.694C119.243 102.757 119.247 102.823 119.212 102.893C119.177 102.963 119.136 103.027 119.101 103.104C118.972 103.332 118.924 103.591 118.967 103.842L119.526 106.968C119.537 107.063 119.572 107.146 119.629 107.223C121.16 109.544 119.113 111.158 120.951 113.239C121.057 113.358 121.016 113.54 120.876 113.61L120.621 113.734C120.467 113.805 120.296 113.774 120.183 113.655C115.745 108.89 110.465 105.48 104.323 103.409C104.004 103.302 103.927 103.393 104.1 103.683C105.463 105.934 106.676 108.252 107.739 110.652C109.604 114.857 113.091 116.162 117.443 117.788C118.88 118.328 120.659 119.493 122.765 121.29C122.92 121.422 122.899 121.478 122.696 121.479C122.402 121.48 121.898 121.405 121.642 121.249C118.744 119.448 115.607 117.953 112.222 116.763C111.742 116.594 111.229 116.921 111.172 117.429C111.097 118.122 111.192 118.919 111.458 119.825C111.536 120.069 111.519 120.276 111.415 120.451C111.213 120.795 111.021 120.792 110.834 120.433C110.231 119.27 110.216 118.098 110.767 116.909C110.878 116.678 110.839 116.472 110.635 116.305L108.058 114.209C107.834 114.021 107.668 113.773 107.583 113.487C107.321 112.648 106.873 111.932 106.231 111.344C106.041 111.17 105.932 110.943 105.913 110.687C105.839 109.75 105.58 108.873 105.15 108.035C103.602 105.028 102.029 102.04 100.442 99.0583C99.4021 97.1207 98.5016 95.0915 97.7196 92.9709C95.6074 87.2658 94.3656 82.194 88.2758 79.2274C87.6413 78.9186 86.9511 79.5442 87.1917 80.201ZM92.4068 110.561C93.0228 113.165 94.4286 115.535 96.6207 117.688C100.935 121.932 105.235 126.183 109.514 130.441C109.563 130.49 109.56 130.535 109.514 130.581L109.368 130.743C109.225 130.887 109.085 130.887 108.934 130.752C106.117 128.132 102.566 125.557 98.2765 123.024C97.3225 122.454 96.4146 122.049 95.5494 121.804C91.0375 120.514 88.1339 118.08 86.2092 113.718C85.8418 112.872 85.096 111.882 84.4503 111.415C83.952 111.061 83.2962 111.546 83.477 112.123L85.7883 119.447C85.9692 120.037 85.4852 120.624 84.869 120.542C80.1499 119.904 76.4257 116.154 74.0305 112.259C73.0372 110.647 72.5888 108.766 72.699 106.625C72.7218 106.208 72.9306 105.948 73.329 105.835C76.4497 104.909 80.5833 106.095 83.9558 105.984C85.7155 105.924 87.3255 106.057 88.7825 106.394C91.7453 107.082 94.7358 107.664 97.7537 108.135C98.0058 108.176 98.2232 108.294 98.3885 108.493C99.299 109.549 100.098 110.669 100.771 111.859C101.592 113.301 101.223 113.673 99.6525 112.987C99.1303 112.762 98.5123 112.246 97.7988 111.455C97.6125 111.249 97.3881 111.146 97.1221 111.126C96.4782 111.086 96.0501 110.78 95.8587 110.2C95.7878 109.976 95.6367 109.806 95.4263 109.687L94.3147 109.094C93.3188 108.552 92.1538 109.452 92.4138 110.561L92.4068 110.561Z" fill="#1A382E"/>
</svg>
