<svg width="22" height="22" viewBox="0 0 26 26" fill="none" xmlns="http://www.w3.org/2000/svg">
<path d="M7.21429 18.572C7.92487 18.572 8.50293 17.9939 8.50293 17.2834V13.7138C8.50293 13.0032 7.92482 12.4252 7.21429 12.4252H5.90095C5.19037 12.4252 4.6123 13.0033 4.6123 13.7138V17.2834C4.6123 17.994 5.19041 18.572 5.90095 18.572H7.21429ZM5.31543 17.2834V13.7138C5.31543 13.3909 5.57812 13.1283 5.90095 13.1283H7.21429C7.53716 13.1283 7.7998 13.391 7.7998 13.7138V17.2834C7.7998 17.6062 7.53712 17.8689 7.21429 17.8689H5.90095C5.57812 17.8689 5.31543 17.6062 5.31543 17.2834Z" fill="#A0FF3B"/>
<path d="M12.6567 18.572C13.3673 18.572 13.9453 17.9939 13.9453 17.2834V11.7062C13.9453 10.9956 13.3673 10.4176 12.6567 10.4176H11.3433C10.6327 10.4176 10.0547 10.9957 10.0547 11.7062V17.2834C10.0547 17.9939 10.6328 18.572 11.3433 18.572L12.6567 18.572ZM10.7578 17.2834V11.7062C10.7578 11.3833 11.0205 11.1207 11.3433 11.1207H12.6567C12.9795 11.1207 13.2422 11.3834 13.2422 11.7062V17.2834C13.2422 17.6062 12.9795 17.8689 12.6567 17.8689H11.3433C11.0205 17.8689 10.7578 17.6062 10.7578 17.2834Z" fill="#A0FF3B"/>
<path d="M19.3877 17.2833V9.28521C19.3877 8.57463 18.8096 7.99657 18.0991 7.99657H16.7857C16.0751 7.99657 15.4971 8.57468 15.4971 9.28521V17.2833C15.4971 17.9939 16.0751 18.572 16.7857 18.572H18.0991C18.8096 18.572 19.3877 17.9939 19.3877 17.2833ZM18.6846 17.2833C18.6846 17.6062 18.4219 17.8689 18.0991 17.8689H16.7857C16.4628 17.8689 16.2002 17.6062 16.2002 17.2833V9.28521C16.2002 8.96233 16.4629 8.69969 16.7857 8.69969H18.0991C18.4219 8.69969 18.6846 8.96238 18.6846 9.28521V17.2833Z" fill="#A0FF3B"/>
<path d="M21.0892 5.73973H17.3359C17.3048 5.70668 13.3487 2.68615 13.3137 2.6562C13.7271 1.74715 13.005 0.641886 12 0.664245C10.9953 0.641839 10.2727 1.74729 10.6863 2.65624C10.6556 2.68292 6.6892 5.71137 6.66417 5.73978H2.91075C1.30575 5.73973 0 7.04449 0 8.64828V9.91465C0 10.1088 0.157406 10.2662 0.351562 10.2662C0.545719 10.2662 0.703125 10.1088 0.703125 9.91465V8.64828C0.703125 7.43224 1.69345 6.4429 2.91075 6.4429H21.0892C22.3065 6.4429 23.2969 7.43224 23.2969 8.64828V18.4276C23.2969 19.6436 22.3065 20.6329 21.0892 20.6329H19.2714C19.0772 20.6329 18.9198 20.7904 18.9198 20.9845C18.9198 21.1787 19.0772 21.3361 19.2714 21.3361H21.0892C22.6942 21.3361 24 20.0313 24 18.4276V8.64828C24 7.04449 22.6943 5.73973 21.0892 5.73973ZM12 1.36732C12.4006 1.36732 12.7266 1.69282 12.7266 2.09295C12.69 3.05426 11.3098 3.05398 11.2734 2.09295C11.2734 1.69287 11.5994 1.36732 12 1.36732ZM11.1148 3.21368C11.6008 3.62009 12.3993 3.62004 12.8851 3.21368L16.1835 5.73973H7.81641L11.1148 3.21368Z" fill="#A0FF3B"/>
<path d="M17.597 20.633H2.91075C1.69345 20.633 0.703125 19.6436 0.703125 18.4276V11.6093C0.703125 11.4152 0.545719 11.2578 0.351562 11.2578C0.157406 11.2578 0 11.4152 0 11.6093V18.4276C0 20.0313 1.30575 21.3361 2.91075 21.3361H17.597C18.0534 21.3238 18.0692 20.65 17.597 20.633Z" fill="#A0FF3B"/>
</svg>
