<svg width="32" height="32" viewBox="0 0 32 32" fill="none" xmlns="http://www.w3.org/2000/svg">
<path d="M26.8939 27.0625H25.8658V12.1345C25.8658 11.4397 25.3004 10.8744 24.6057 10.8744H22.3077C21.6128 10.8744 21.0476 11.4397 21.0476 12.1345V27.0625H18.437V18.898C18.437 18.2032 17.8717 17.6379 17.1769 17.6379H14.8789C14.1841 17.6379 13.6188 18.2033 13.6188 18.898V27.0625H11.0082V22.8342C11.0082 22.1393 10.4429 21.5741 9.74815 21.5741H7.4501C6.75527 21.5741 6.19001 22.1394 6.19001 22.8342V27.0625H5.10645C4.84755 27.0625 4.6377 27.2724 4.6377 27.5312C4.6377 27.7901 4.84755 28 5.10645 28H26.8939C27.1528 28 27.3626 27.7901 27.3626 27.5312C27.3626 27.2724 27.1528 27.0625 26.8939 27.0625ZM10.0707 27.0625H7.12746V22.8342C7.12746 22.6563 7.27217 22.5116 7.45006 22.5116H9.74806C9.92595 22.5116 10.0707 22.6563 10.0707 22.8342V27.0625ZM17.4995 27.0625H14.5563V18.898C14.5563 18.7201 14.701 18.5754 14.8789 18.5754H17.1769C17.3547 18.5754 17.4995 18.7201 17.4995 18.898V27.0625ZM24.9283 27.0625H21.9851V12.1345C21.9851 11.9566 22.1298 11.8119 22.3077 11.8119H24.6057C24.7836 11.8119 24.9283 11.9566 24.9283 12.1345V27.0625Z" fill="white"/>
<path d="M25.8644 4.49294C25.8709 4.36502 25.8259 4.23494 25.7282 4.13725C25.6306 4.03956 25.5005 3.99452 25.3726 4.00113C25.365 4.0008 25.3575 4 25.3499 4H22.5139C22.255 4 22.0452 4.20986 22.0452 4.46875C22.0452 4.72764 22.255 4.9375 22.5139 4.9375H24.265L19.6311 9.57147L17.8836 7.82397C17.7957 7.73608 17.6765 7.68667 17.5522 7.68667C17.4278 7.68667 17.3086 7.73608 17.2207 7.82397L8.79402 16.2507C8.61098 16.4337 8.61098 16.7306 8.79402 16.9136C8.88557 17.0051 9.00552 17.0509 9.12548 17.0509C9.24543 17.0509 9.36543 17.0051 9.45693 16.9136L17.5522 8.81828L19.2997 10.5658C19.4827 10.7488 19.7795 10.7488 19.9626 10.5658L24.928 5.60045V7.1853C24.928 7.44419 25.1378 7.65405 25.3967 7.65405C25.6556 7.65405 25.8655 7.44419 25.8655 7.1853V4.51563C25.8655 4.50798 25.8647 4.50053 25.8644 4.49294Z" fill="white"/>
<path d="M7.5459 18.6864C7.80478 18.6864 8.01465 18.4765 8.01465 18.2177C8.01465 17.9588 7.80478 17.7489 7.5459 17.7489C7.28702 17.7489 7.07715 17.9588 7.07715 18.2177C7.07715 18.4765 7.28702 18.6864 7.5459 18.6864Z" fill="white"/>
</svg>
