<svg xmlns="http://www.w3.org/2000/svg" width="112" height="112" viewBox="0 0 112 112" fill="none">
  <!-- Sparkles Around the Star -->
  <path d="M61.6201 92.3799L66 94L61.6201 95.6201L60 100L58.3799 95.6201L54 94L58.3799 92.3799L60 88L61.6201 92.3799Z" fill="#87B7FF"/>
  <path d="M104.7158 61.2842L108 62.5L104.7158 63.7158L103.5 67L102.284 63.7158L99 62.5L102.284 61.2842L103.5 58L104.716 61.2842Z" fill="#87B7FF"/>
  <path d="M17.6201 58.3799L22 60L17.6201 61.6201L16 66L14.3799 61.6201L10 60L14.3799 58.3799L16 54L17.6201 58.3799Z" fill="#87B7FF"/>
  <path d="M38.7158 23.2842L42 24.5L38.7158 25.7158L37.5 29L36.2842 25.7158L33 24.5L36.2842 23.2842L37.5 20L38.7158 23.2842Z" fill="#87B7FF"/>
  <path d="M79.8105 25.1895L82 26L79.8105 26.8105L79 29L78.1895 26.8105L76 26L78.1895 25.1895L79 23L79.8105 25.1895Z" fill="#87B7FF"/>

  <!-- Central Star / Medal -->
  <g transform="translate(35 35) scale(0.9)">
    <path d="M35.0703 22.9891L27.8764 14.4551C28.6478 14.0498 29.1754 13.2409 29.1754 12.3107C29.1754 11.2926 28.5434 10.4198 27.6513 10.0625L29.3004 4.29677C29.3716 4.04802 29.3022 3.78033 29.1193 3.59738C28.0223 2.5004 26.2374 2.5004 25.1403 3.59738C24.8779 3.8598 24.529 4.00429 24.158 4.00429C23.7869 4.00429 23.438 3.8598 23.1739 3.59567L23.1704 3.59218C22.0773 2.49891 20.2955 2.49585 19.1979 3.5857L19.1775 3.60607C18.6358 4.14394 17.7559 4.14238 17.2162 3.60258L17.211 3.59738C16.1139 2.5004 14.329 2.5004 13.232 3.59738C13.049 3.78047 12.9797 4.04838 13.051 4.29727L14.7037 10.0612C13.8097 10.4175 13.1759 11.2912 13.1759 12.3108C13.1759 13.241 13.7035 14.0498 14.4749 14.4552L7.28095 22.9891C5.17488 26.2905 5.04142 30.3117 6.92396 33.7456C8.80649 37.1794 14.0183 39.2295 17.9344 39.2295H24.4167C28.3328 39.2295 33.5446 37.1794 35.4272 33.7456C37.3098 30.3117 37.1764 26.2905 35.0703 22.9891ZM16.2038 4.60448L16.209 4.60968C17.3023 5.70288 19.084 5.70587 20.1815 4.61616L20.202 4.5958C20.7436 4.05792 21.6235 4.05948 22.1649 4.60092L22.1684 4.60441C23.2654 5.70139 25.0503 5.70139 26.1474 4.60441C26.5937 4.15804 27.2708 4.0795 27.7983 4.36877L26.2194 9.88947H16.1362L14.5531 4.36869C15.0807 4.0795 15.7575 4.15819 16.2038 4.60448ZM34.1784 33.0609C32.5497 36.0317 27.8047 37.8053 24.4168 37.8053H17.9345C14.5466 37.8053 9.80163 36.0317 8.17297 33.0609C6.54432 30.0902 6.65975 26.6114 8.48176 23.7551L15.9876 14.732H17.971C18.3644 14.732 18.6832 14.4132 18.6832 14.0199C18.6832 13.6265 18.3644 13.3077 17.971 13.3077H15.5972C15.0474 13.3077 14.6002 12.8605 14.6002 12.3107C14.6002 11.761 15.0474 11.3137 15.5972 11.3137H15.5996H26.754C27.3038 11.3137 27.751 11.761 27.751 12.3107C27.751 12.8605 27.3038 13.3077 26.754 13.3077H24.3803C23.987 13.3077 23.6681 13.6265 23.6681 14.0199C23.6681 14.4132 23.987 14.732 24.3803 14.732H26.3637L33.8696 23.7551C35.6916 26.6113 35.807 30.0901 34.1784 33.0609Z" fill="#87B7FF"/>
    <path d="M21.1755 14.7321C21.3628 14.7321 21.5465 14.6559 21.679 14.5235C21.8115 14.391 21.8877 14.2073 21.8877 14.02C21.8877 13.8327 21.8115 13.649 21.679 13.5165C21.5465 13.3841 21.3628 13.3079 21.1755 13.3079C20.9882 13.3079 20.8045 13.3841 20.672 13.5165C20.5396 13.649 20.4634 13.8327 20.4634 14.02C20.4634 14.2073 20.5396 14.391 20.672 14.5235C20.8045 14.6559 20.9882 14.7321 21.1755 14.7321Z" fill="#87B7FF"/>
    <path d="M27.6348 21.1484L22.5029 26.6348C22.1353 27.0276 21.6496 27.2815 21.126 27.3691C21.6573 27.4554 22.148 27.7191 22.5107 28.127L25.0615 30.9951L24.7695 31.3174L20.7588 28.3945L14.1396 33.9102L13.8398 33.5928L18.9727 28.1064C19.3401 27.7138 19.8253 27.4596 20.3486 27.3721C19.8174 27.2855 19.3264 27.022 18.9639 26.6143L16.4141 23.7471L16.7061 23.4238L20.7168 26.3467L27.3359 20.8311L27.6348 21.1484Z" fill="#87B7FF"/>
  </g>
</svg>
