<svg xmlns="http://www.w3.org/2000/svg" width="42" height="42" viewBox="0 0 42 42" fill="none">
<rect width="42" height="42" fill="#262626"/>
<g clip-path="url(#clip0_289_997)">
<rect width="393" height="1941" transform="translate(-298 -249)" fill="#131618"/>
<path d="M-298 -249H95V63C95 76.2548 84.2548 87 71 87H-274C-287.255 87 -298 76.2548 -298 63V-249Z" fill="#050909"/>
<path d="M94.5 -248.5V63C94.5 75.9787 83.9787 86.5 71 86.5H-274C-286.979 86.5 -297.5 75.9787 -297.5 63V-248.5H94.5Z" stroke="url(#paint0_linear_289_997)" stroke-opacity="0.2"/>
<mask id="mask0_289_997" style="mask-type:alpha" maskUnits="userSpaceOnUse" x="-298" y="-249" width="393" height="336">
<path d="M-298 -249H95V63C95 76.2548 84.2548 87 71 87H-274C-287.255 87 -298 76.2548 -298 63V-249Z" fill="#1A382E"/>
<path d="M94.5 -248.5V63C94.5 75.9787 83.9787 86.5 71 86.5H-274C-286.979 86.5 -297.5 75.9787 -297.5 63V-248.5H94.5Z" stroke="url(#paint1_linear_289_997)" stroke-opacity="0.2"/>
</mask>
<g mask="url(#mask0_289_997)">
<g opacity="0.6" filter="url(#filter0_f_289_997)">
<ellipse cx="20.8674" cy="22.1657" rx="180.957" ry="176.461" transform="rotate(-14.5407 20.8674 22.1657)" fill="#202938"/>
</g>
<g opacity="0.6" filter="url(#filter1_f_289_997)">
<ellipse cx="22.4876" cy="35.717" rx="77.2275" ry="76.314" transform="rotate(-14.5407 22.4876 35.717)" fill="#6CA5F8"/>
</g>
</g>
<g clip-path="url(#clip1_289_997)">
<path d="M35.0703 22.9891L27.8764 14.4551C28.6478 14.0498 29.1754 13.2409 29.1754 12.3107C29.1754 11.2926 28.5434 10.4198 27.6513 10.0625L29.3004 4.29677C29.3716 4.04802 29.3022 3.78033 29.1193 3.59738C28.0223 2.5004 26.2374 2.5004 25.1403 3.59738C24.8779 3.8598 24.529 4.00429 24.158 4.00429C23.7869 4.00429 23.438 3.8598 23.1739 3.59567L23.1704 3.59218C22.0773 2.49891 20.2955 2.49585 19.1979 3.5857L19.1775 3.60607C18.6358 4.14394 17.7559 4.14238 17.2162 3.60258L17.211 3.59738C16.1139 2.5004 14.329 2.5004 13.232 3.59738C13.049 3.78047 12.9797 4.04838 13.051 4.29727L14.7037 10.0612C13.8097 10.4175 13.1759 11.2912 13.1759 12.3108C13.1759 13.241 13.7035 14.0498 14.4749 14.4552L7.28095 22.9891C5.17488 26.2905 5.04142 30.3117 6.92396 33.7456C8.80649 37.1794 14.0183 39.2295 17.9344 39.2295H24.4167C28.3328 39.2295 33.5446 37.1794 35.4272 33.7456C37.3098 30.3117 37.1764 26.2905 35.0703 22.9891ZM16.2038 4.60448L16.209 4.60968C17.3023 5.70288 19.084 5.70587 20.1815 4.61616L20.202 4.5958C20.7436 4.05792 21.6235 4.05948 22.1649 4.60092L22.1684 4.60441C23.2654 5.70139 25.0503 5.70139 26.1474 4.60441C26.5937 4.15804 27.2708 4.0795 27.7983 4.36877L26.2194 9.88947H16.1362L14.5531 4.36869C15.0807 4.0795 15.7575 4.15819 16.2038 4.60448ZM34.1784 33.0609C32.5497 36.0317 27.8047 37.8053 24.4168 37.8053H17.9345C14.5466 37.8053 9.80163 36.0317 8.17297 33.0609C6.54432 30.0902 6.65975 26.6114 8.48176 23.7551L15.9876 14.732H17.971C18.3644 14.732 18.6832 14.4132 18.6832 14.0199C18.6832 13.6265 18.3644 13.3077 17.971 13.3077H15.5972C15.0474 13.3077 14.6002 12.8605 14.6002 12.3107C14.6002 11.761 15.0474 11.3137 15.5972 11.3137H15.5996H26.754C27.3038 11.3137 27.751 11.761 27.751 12.3107C27.751 12.8605 27.3038 13.3077 26.754 13.3077H24.3803C23.987 13.3077 23.6681 13.6265 23.6681 14.0199C23.6681 14.4132 23.987 14.732 24.3803 14.732H26.3637L33.8696 23.7551C35.6916 26.6113 35.807 30.0901 34.1784 33.0609Z" fill="#87B7FF"/>
<path d="M21.1755 14.7321C21.3628 14.7321 21.5465 14.6559 21.679 14.5235C21.8115 14.391 21.8877 14.2073 21.8877 14.02C21.8877 13.8327 21.8115 13.649 21.679 13.5165C21.5465 13.3841 21.3628 13.3079 21.1755 13.3079C20.9882 13.3079 20.8045 13.3841 20.672 13.5165C20.5396 13.649 20.4634 13.8327 20.4634 14.02C20.4634 14.2073 20.5396 14.391 20.672 14.5235C20.8045 14.6559 20.9882 14.7321 21.1755 14.7321Z" fill="#87B7FF"/>
<path d="M27.6348 21.1484L22.5029 26.6348C22.1353 27.0276 21.6496 27.2815 21.126 27.3691C21.6573 27.4554 22.148 27.7191 22.5107 28.127L25.0615 30.9951L24.7695 31.3174L20.7588 28.3945L14.1396 33.9102L13.8398 33.5928L18.9727 28.1064C19.3401 27.7138 19.8253 27.4596 20.3486 27.3721C19.8174 27.2855 19.3264 27.022 18.9639 26.6143L16.4141 23.7471L16.7061 23.4238L20.7168 26.3467L27.3359 20.8311L27.6348 21.1484Z" fill="#87B7FF"/>
</g>
<path d="M23.6201 55.3799L28 57L23.6201 58.6201L22 63L20.3799 58.6201L16 57L20.3799 55.3799L22 51L23.6201 55.3799ZM66.7158 24.2842L70 25.5L66.7158 26.7158L65.5 30L64.2842 26.7158L61 25.5L64.2842 24.2842L65.5 21L66.7158 24.2842ZM-20.3799 21.3799L-16 23L-20.3799 24.6201L-22 29L-23.6201 24.6201L-28 23L-23.6201 21.3799L-22 17L-20.3799 21.3799ZM0.71582 -13.7158L4 -12.5L0.71582 -11.2842L-0.5 -8L-1.71582 -11.2842L-5 -12.5L-1.71582 -13.7158L-0.5 -17L0.71582 -13.7158ZM41.8105 -11.8105L44 -11L41.8105 -10.1895L41 -8L40.1895 -10.1895L38 -11L40.1895 -11.8105L41 -14L41.8105 -11.8105Z" fill="#87B7FF"/>
</g>
<defs>
<filter id="filter0_f_289_997" x="-259.853" y="-254.626" width="561.441" height="553.583" filterUnits="userSpaceOnUse" color-interpolation-filters="sRGB">
<feFlood flood-opacity="0" result="BackgroundImageFix"/>
<feBlend mode="normal" in="SourceGraphic" in2="BackgroundImageFix" result="shape"/>
<feGaussianBlur stdDeviation="50" result="effect1_foregroundBlur_289_997"/>
</filter>
<filter id="filter1_f_289_997" x="-204.701" y="-190.674" width="454.377" height="452.781" filterUnits="userSpaceOnUse" color-interpolation-filters="sRGB">
<feFlood flood-opacity="0" result="BackgroundImageFix"/>
<feBlend mode="normal" in="SourceGraphic" in2="BackgroundImageFix" result="shape"/>
<feGaussianBlur stdDeviation="75" result="effect1_foregroundBlur_289_997"/>
</filter>
<linearGradient id="paint0_linear_289_997" x1="-101.5" y1="-249" x2="-101.5" y2="87" gradientUnits="userSpaceOnUse">
<stop stop-color="#87B7FF" stop-opacity="0"/>
<stop offset="1" stop-color="#87B7FF"/>
</linearGradient>
<linearGradient id="paint1_linear_289_997" x1="-101.5" y1="-249" x2="-101.5" y2="87" gradientUnits="userSpaceOnUse">
<stop stop-color="#5E4631" stop-opacity="0"/>
<stop offset="1" stop-color="#C49167"/>
</linearGradient>
<clipPath id="clip0_289_997">
<rect width="393" height="1941" fill="white" transform="translate(-298 -249)"/>
</clipPath>
<clipPath id="clip1_289_997">
<rect width="42" height="42" fill="white"/>
</clipPath>
</defs>
</svg>