<svg xmlns="http://www.w3.org/2000/svg" width="98" height="80" viewBox="0 0 98 80" fill="none">
<rect width="98" height="80" fill="#262626"/>
<g clip-path="url(#clip0_289_997)">
<rect width="393" height="1941" transform="translate(-270 -232)" fill="#131618"/>
<path d="M-270 -232H123V80C123 93.2548 112.255 104 99 104H-246C-259.255 104 -270 93.2548 -270 80V-232Z" fill="#050909"/>
<path d="M122.5 -231.5V80C122.5 92.9787 111.979 103.5 99 103.5H-246C-258.979 103.5 -269.5 92.9787 -269.5 80V-231.5H122.5Z" stroke="url(#paint0_linear_289_997)" stroke-opacity="0.2"/>
<mask id="mask0_289_997" style="mask-type:alpha" maskUnits="userSpaceOnUse" x="-270" y="-232" width="393" height="336">
<path d="M-270 -232H123V80C123 93.2548 112.255 104 99 104H-246C-259.255 104 -270 93.2548 -270 80V-232Z" fill="#1A382E"/>
<path d="M122.5 -231.5V80C122.5 92.9787 111.979 103.5 99 103.5H-246C-258.979 103.5 -269.5 92.9787 -269.5 80V-231.5H122.5Z" stroke="url(#paint1_linear_289_997)" stroke-opacity="0.2"/>
</mask>
<g mask="url(#mask0_289_997)">
<g opacity="0.6" filter="url(#filter0_f_289_997)">
<ellipse cx="48.8674" cy="39.1657" rx="180.957" ry="176.461" transform="rotate(-14.5407 48.8674 39.1657)" fill="#202938"/>
</g>
<g opacity="0.6" filter="url(#filter1_f_289_997)">
<ellipse cx="50.4876" cy="52.717" rx="77.2275" ry="76.314" transform="rotate(-14.5407 50.4876 52.717)" fill="#6CA5F8"/>
</g>
</g>
<g clip-path="url(#clip1_289_997)">
<path d="M63.0703 39.9891L55.8764 31.4551C56.6478 31.0498 57.1754 30.2409 57.1754 29.3107C57.1754 28.2926 56.5434 27.4198 55.6513 27.0625L57.3004 21.2968C57.3716 21.048 57.3022 20.7803 57.1193 20.5974C56.0223 19.5004 54.2374 19.5004 53.1403 20.5974C52.8779 20.8598 52.529 21.0043 52.158 21.0043C51.7869 21.0043 51.438 20.8598 51.1739 20.5957L51.1704 20.5922C50.0773 19.4989 48.2955 19.4958 47.1979 20.5857L47.1775 20.6061C46.6358 21.1439 45.7559 21.1424 45.2162 20.6026L45.211 20.5974C44.1139 19.5004 42.329 19.5004 41.232 20.5974C41.049 20.7805 40.9797 21.0484 41.051 21.2973L42.7037 27.0612C41.8097 27.4175 41.1759 28.2912 41.1759 29.3108C41.1759 30.241 41.7035 31.0498 42.4749 31.4552L35.281 39.9891C33.1749 43.2906 33.0414 47.3117 34.924 50.7456C36.8065 54.1794 42.0183 56.2295 45.9344 56.2295H52.4167C56.3328 56.2295 61.5446 54.1794 63.4272 50.7456C65.3098 47.3117 65.1764 43.2906 63.0703 39.9891ZM44.2038 21.6045L44.209 21.6097C45.3023 22.7029 47.084 22.7059 48.1815 21.6162L48.202 21.5958C48.7436 21.0579 49.6235 21.0595 50.1649 21.6009L50.1684 21.6044C51.2654 22.7014 53.0503 22.7014 54.1474 21.6044C54.5937 21.158 55.2708 21.0795 55.7983 21.3688L54.2194 26.8895H44.1362L42.5531 21.3687C43.0807 21.0795 43.7575 21.1582 44.2038 21.6045ZM62.1784 50.0609C60.5497 53.0317 55.8047 54.8053 52.4168 54.8053H45.9345C42.5466 54.8053 37.8016 53.0317 36.173 50.0609C34.5443 47.0902 34.6598 43.6114 36.4818 40.7551L43.9876 31.732H45.971C46.3644 31.732 46.6832 31.4132 46.6832 31.0199C46.6832 30.6265 46.3644 30.3077 45.971 30.3077H43.5972C43.0474 30.3077 42.6002 29.8605 42.6002 29.3107C42.6002 28.761 43.0474 28.3137 43.5972 28.3137H43.5996H54.754C55.3038 28.3137 55.751 28.761 55.751 29.3107C55.751 29.8605 55.3038 30.3077 54.754 30.3077H52.3803C51.987 30.3077 51.6681 30.6265 51.6681 31.0199C51.6681 31.4132 51.987 31.732 52.3803 31.732H54.3637L61.8696 40.7551C63.6916 43.6113 63.807 47.0901 62.1784 50.0609Z" fill="#87B7FF"/>
<path d="M49.1755 31.7321C49.3628 31.7321 49.5465 31.6559 49.679 31.5235C49.8115 31.391 49.8877 31.2073 49.8877 31.02C49.8877 30.8327 49.8115 30.649 49.679 30.5165C49.5465 30.3841 49.3628 30.3079 49.1755 30.3079C48.9882 30.3079 48.8045 30.3841 48.672 30.5165C48.5396 30.649 48.4634 30.8327 48.4634 31.02C48.4634 31.2073 48.5396 31.391 48.672 31.5235C48.8045 31.6559 48.9882 31.7321 49.1755 31.7321Z" fill="#87B7FF"/>
<path d="M55.6348 38.1484L50.5029 43.6348C50.1353 44.0276 49.6496 44.2815 49.126 44.3691C49.6573 44.4554 50.148 44.7191 50.5107 45.127L53.0615 47.9951L52.7695 48.3174L48.7588 45.3945L42.1396 50.9102L41.8398 50.5928L46.9727 45.1064C47.3401 44.7138 47.8253 44.4596 48.3486 44.3721C47.8174 44.2855 47.3264 44.022 46.9639 43.6143L44.4141 40.7471L44.7061 40.4238L48.7168 43.3467L55.3359 37.8311L55.6348 38.1484Z" fill="#87B7FF"/>
</g>
<path d="M51.6201 72.3799L56 74L51.6201 75.6201L50 80L48.3799 75.6201L44 74L48.3799 72.3799L50 68L51.6201 72.3799ZM94.7158 41.2842L98 42.5L94.7158 43.7158L93.5 47L92.2842 43.7158L89 42.5L92.2842 41.2842L93.5 38L94.7158 41.2842ZM7.62012 38.3799L12 40L7.62012 41.6201L6 46L4.37988 41.6201L0 40L4.37988 38.3799L6 34L7.62012 38.3799ZM28.7158 3.28418L32 4.5L28.7158 5.71582L27.5 9L26.2842 5.71582L23 4.5L26.2842 3.28418L27.5 0L28.7158 3.28418ZM69.8105 5.18945L72 6L69.8105 6.81055L69 9L68.1895 6.81055L66 6L68.1895 5.18945L69 3L69.8105 5.18945Z" fill="#87B7FF"/>
</g>
<defs>
<filter id="filter0_f_289_997" x="-231.853" y="-237.626" width="561.441" height="553.583" filterUnits="userSpaceOnUse" color-interpolation-filters="sRGB">
<feFlood flood-opacity="0" result="BackgroundImageFix"/>
<feBlend mode="normal" in="SourceGraphic" in2="BackgroundImageFix" result="shape"/>
<feGaussianBlur stdDeviation="50" result="effect1_foregroundBlur_289_997"/>
</filter>
<filter id="filter1_f_289_997" x="-176.701" y="-173.674" width="454.377" height="452.781" filterUnits="userSpaceOnUse" color-interpolation-filters="sRGB">
<feFlood flood-opacity="0" result="BackgroundImageFix"/>
<feBlend mode="normal" in="SourceGraphic" in2="BackgroundImageFix" result="shape"/>
<feGaussianBlur stdDeviation="75" result="effect1_foregroundBlur_289_997"/>
</filter>
<linearGradient id="paint0_linear_289_997" x1="-73.5" y1="-232" x2="-73.5" y2="104" gradientUnits="userSpaceOnUse">
<stop stop-color="#87B7FF" stop-opacity="0"/>
<stop offset="1" stop-color="#87B7FF"/>
</linearGradient>
<linearGradient id="paint1_linear_289_997" x1="-73.5" y1="-232" x2="-73.5" y2="104" gradientUnits="userSpaceOnUse">
<stop stop-color="#5E4631" stop-opacity="0"/>
<stop offset="1" stop-color="#C49167"/>
</linearGradient>
<clipPath id="clip0_289_997">
<rect width="393" height="1941" fill="white" transform="translate(-270 -232)"/>
</clipPath>
<clipPath id="clip1_289_997">
<rect width="42" height="42" fill="white" transform="translate(28 17)"/>
</clipPath>
</defs>
</svg>