<svg width="22" height="22" viewBox="0 0 26 26" fill="none" xmlns="http://www.w3.org/2000/svg">
<path d="M4.7151 23.25H20.0061C20.5049 23.2495 20.9832 23.0511 21.3359 22.6984C21.6886 22.3457 21.887 21.8674 21.8875 21.3686V18.4271C21.8875 18.4241 21.8894 18.4215 21.8894 18.4181V3.04312C21.8885 2.43503 21.6464 1.85211 21.2163 1.42223C20.7862 0.992347 20.2032 0.750595 19.5951 0.75H4.69448C4.0094 0.750893 3.35263 1.02344 2.86821 1.50786C2.38379 1.99228 2.11124 2.64905 2.11035 3.33413V20.6445V20.6524C2.11283 21.3418 2.38828 22.0021 2.87643 22.489C3.36459 22.9758 4.02569 23.2494 4.7151 23.25ZM21.1401 3.04387V18.0439H5.46173V1.5H19.5951C20.0045 1.5004 20.397 1.66317 20.6865 1.95261C20.976 2.24204 21.1389 2.6345 21.1394 3.04387H21.1401ZM4.69448 1.5H4.71173V18.0431C4.36683 18.0434 4.02545 18.1125 3.70756 18.2463C3.38967 18.3801 3.10165 18.5759 2.86035 18.8224V3.33413C2.86124 2.84796 3.05477 2.38196 3.39854 2.03819C3.74231 1.69442 4.20831 1.50089 4.69448 1.5ZM4.71435 18.7927H21.1394V21.3682C21.1391 21.6686 21.0195 21.9565 20.807 22.1687C20.5945 22.3809 20.3064 22.5001 20.0061 22.5H4.7151C4.22349 22.5 3.75201 22.3047 3.40439 21.9571C3.05677 21.6095 2.86148 21.138 2.86148 20.6464C2.86148 20.1548 3.05677 19.6833 3.40439 19.3357C3.75201 18.988 4.22349 18.7927 4.7151 18.7927H4.71435Z" fill="#A0FF3B"/>
<g clip-path="url(#clip0_340_2408)">
<path d="M15.692 12.6485C15.692 12.9234 15.6573 13.8858 14.6953 13.8858C14.1798 13.8858 13.9392 13.0265 12.8059 13.0265C12.0502 13.0265 12.1872 13.3353 10.779 13.3353C9.37001 13.3353 8.5454 12.6485 8.5454 11.6179C8.5454 10.3806 9.29519 10.7784 10.0572 10.1751C10.8822 9.52217 10.8133 9.0067 11.8442 9.0067C12.7027 9.0067 13.1823 10.1806 13.7679 10.4153C14.6268 10.7587 15.692 11.9271 15.692 12.6485ZM9.44601 8.61566C9.46846 8.02851 9.21997 7.53115 8.74585 7.53115C8.24848 7.53115 8 8.02851 8 8.43451C8 8.99961 8.31622 9.54147 8.74585 9.54147C9.17508 9.54107 9.42317 9.2032 9.44601 8.61566ZM13.0146 8.0734C13.4438 8.0734 14.0085 7.28306 14.031 6.69552C14.0538 6.10798 13.9861 5.49878 13.5115 5.49878C13.0146 5.49878 12.3144 6.24384 12.3144 6.85382C12.3144 7.41853 12.5857 8.0734 13.0146 8.0734ZM14.7315 9.51902C15.3636 9.51902 15.7483 8.81886 15.7707 8.23132C15.7932 7.64377 15.6577 7.14681 15.1832 7.14681C14.4157 7.14681 14.0313 7.89265 14.0313 8.50225C14.0313 9.06695 14.3023 9.51902 14.7315 9.51902ZM16.7414 9.04489C15.9735 9.04489 15.5219 9.92502 15.5219 10.5354C15.5219 11.1005 15.883 11.5069 16.3126 11.5069C16.9446 11.5069 17.3518 10.8749 17.3739 10.2873C17.3963 9.69938 17.2156 9.04489 16.7414 9.04489ZM10.6431 8.2766C11.0724 8.2766 11.411 7.96078 11.411 7.37284C11.411 6.3793 11.8623 5.38537 11.3886 5.38537C10.4396 5.38537 9.8973 6.76286 9.8973 7.16965C9.8973 7.73474 10.2135 8.2766 10.6431 8.2766ZM8.80846 7.19327C8.93999 7.22911 9.06285 7.29566 9.05931 7.10979C9.0534 6.81956 9.08333 6.34583 8.93999 6.33362C8.85453 6.32693 8.6155 6.82468 8.54698 7.07199C8.48319 7.30708 8.65685 7.15232 8.80846 7.19327ZM11.4835 4.91557C11.6272 4.95928 11.7607 5.03332 11.769 4.85729C11.7832 4.58203 11.8497 4.13704 11.6906 4.1142C11.5969 4.10042 11.2949 4.55052 11.2011 4.77853C11.1133 4.99551 11.3177 4.8632 11.4835 4.91557ZM14.0298 5.0786C14.1613 5.11444 14.2869 5.18099 14.281 4.99472C14.2692 4.66039 14.2456 4.1969 14.1026 4.18469C14.0176 4.1776 13.8258 4.60369 13.7577 4.85099C13.6935 5.08648 13.8786 5.03725 14.0298 5.0786ZM16.1283 6.36198C16.2598 6.39821 16.3858 6.46476 16.3791 6.27849C16.3677 5.94416 16.2886 5.31842 16.1452 5.307C16.0602 5.29991 15.9338 5.79728 15.8322 6.06624C15.7463 6.29385 15.9771 6.32102 16.1283 6.36198ZM17.7748 7.76309C17.6897 7.75601 17.5546 8.10373 17.4865 8.35142C17.4227 8.58652 17.5971 8.56053 17.7488 8.60188C17.8803 8.63771 18.0059 8.70426 17.9996 8.51839C17.9874 8.18406 17.9181 7.77491 17.7748 7.76309Z" fill="#A0FF3B"/>
</g>
<path d="M12.0211 21.0195H12.7289C12.7345 21.0195 12.7399 20.98 12.7438 20.9097C12.7478 20.8394 12.75 20.744 12.75 20.6445C12.75 20.5451 12.7478 20.4497 12.7438 20.3794C12.7399 20.309 12.7345 20.2695 12.7289 20.2695H12.0211C12.0155 20.2695 12.0101 20.309 12.0062 20.3794C12.0022 20.4497 12 20.5451 12 20.6445C12 20.744 12.0022 20.8394 12.0062 20.9097C12.0101 20.98 12.0155 21.0195 12.0211 21.0195Z" fill="#A0FF3B"/>
<defs>
<clipPath id="clip0_340_2408">
<rect width="10" height="10" fill="white" transform="translate(8 4)"/>
</clipPath>
</defs>
</svg>
