<?xml version="1.0" encoding="UTF-8"?>
<svg version="1.1" xmlns="http://www.w3.org/2000/svg" width="539" height="512">
<path d="M0 0 C1.37708796 -0.00457113 2.75417365 -0.00987945 4.1312561 -0.0158844 C7.00752062 -0.02478053 9.88350698 -0.02243347 12.75976562 -0.01245117 C16.42011039 -0.00097674 20.07948817 -0.02116605 23.73970604 -0.05036831 C26.58130857 -0.06884172 29.42268421 -0.06841576 32.26433182 -0.06273079 C34.26156998 -0.06250574 36.25878717 -0.07930158 38.25595093 -0.09654236 C48.37475969 -0.01966401 56.60186981 1.70602481 64.15234375 8.74609375 C66.49781434 11.1643355 68.72288288 13.66525716 70.90625 16.23046875 C72.99205927 18.67112524 75.13491842 21.05308199 77.2890625 23.43359375 C80.55297098 27.0503572 83.77697199 30.69748983 86.9765625 34.37109375 C89.06117414 36.74323804 91.17334894 39.0891544 93.2890625 41.43359375 C95.97889681 44.41422096 98.65216614 47.40604608 101.2890625 50.43359375 C105.39987289 55.15060659 109.59574095 59.78998264 113.7890625 64.43359375 C118.55693225 69.71344951 123.30418468 75.00651181 127.9765625 80.37109375 C130.06117414 82.74323804 132.17334894 85.0891544 134.2890625 87.43359375 C137.55297098 91.0503572 140.77697199 94.69748983 143.9765625 98.37109375 C146.06117414 100.74323804 148.17334894 103.0891544 150.2890625 105.43359375 C153.55297098 109.0503572 156.77697199 112.69748983 159.9765625 116.37109375 C162.06117414 118.74323804 164.17334894 121.0891544 166.2890625 123.43359375 C167.78934489 125.10000622 169.28935582 126.76666314 170.7890625 128.43359375 C171.44519531 129.160625 172.10132813 129.88765625 172.77734375 130.63671875 C176.13415227 134.4032448 179.11393533 138.15339028 181.7890625 142.43359375 C178.10079205 140.76763584 174.92385516 138.48796445 171.6640625 136.12109375 C171.05715576 135.6837793 170.45024902 135.24646484 169.82495117 134.79589844 C168.50495734 133.84418604 167.18590169 132.89117137 165.86767578 131.93701172 C163.7596851 130.41234568 161.64785832 128.89312941 159.53515625 127.375 C150.94558763 121.19605225 142.40550301 114.9533831 133.89575195 108.66503906 C128.55136775 104.71999725 123.18037738 100.81420744 117.7890625 96.93359375 C110.78691008 91.89351556 103.83292994 86.7914599 96.89453125 81.6640625 C91.55048574 77.71943971 86.17995469 73.81390319 80.7890625 69.93359375 C73.78905468 64.89505922 66.83673919 59.7951828 59.90112305 54.66845703 C54.49487605 50.67708944 49.05773869 46.73136176 43.6015625 42.80859375 C35.24388722 36.79788638 27.00031874 30.64237742 18.7890625 24.43359375 C14.42821815 26.83450806 10.88112223 29.79339375 7.1640625 33.05859375 C5.91361375 34.14421285 4.662303 35.22883981 3.41015625 36.3125 C2.48759033 37.11131592 2.48759033 37.11131592 1.54638672 37.92626953 C-1.72737889 40.73430355 -5.0856925 43.43761654 -8.43359375 46.15625 C-11.55490117 48.71563429 -14.6354378 51.31953166 -17.7109375 53.93359375 C-22.56047801 58.05467167 -27.46254714 62.10350858 -32.3984375 66.12109375 C-35.52893416 68.69505767 -38.62266211 71.30928461 -41.7109375 73.93359375 C-46.56053131 78.05461009 -51.46254556 82.10350729 -56.3984375 86.12109375 C-59.52893416 88.69505767 -62.62266211 91.30928461 -65.7109375 93.93359375 C-70.56053131 98.05461009 -75.46254556 102.10350729 -80.3984375 106.12109375 C-83.52893416 108.69505767 -86.62266211 111.30928461 -89.7109375 113.93359375 C-94.56053131 118.05461009 -99.46254556 122.10350729 -104.3984375 126.12109375 C-107.52893416 128.69505767 -110.62266211 131.30928461 -113.7109375 133.93359375 C-118.56053131 138.05461009 -123.46254556 142.10350729 -128.3984375 146.12109375 C-131.52893416 148.69505767 -134.62266211 151.30928461 -137.7109375 153.93359375 C-142.56053131 158.05461009 -147.46254556 162.10350729 -152.3984375 166.12109375 C-155.52893416 168.69505767 -158.62266211 171.30928461 -161.7109375 173.93359375 C-166.56053131 178.05461009 -171.46254556 182.10350729 -176.3984375 186.12109375 C-179.52893416 188.69505767 -182.62266211 191.30928461 -185.7109375 193.93359375 C-190.56053131 198.05461009 -195.46254556 202.10350729 -200.3984375 206.12109375 C-203.52893416 208.69505767 -206.62266211 211.30928461 -209.7109375 213.93359375 C-213.68001685 217.30637949 -217.67110613 220.64535892 -221.7109375 223.93359375 C-226.92059452 228.17454441 -232.04920223 232.50580983 -237.16796875 236.85546875 C-240.16900976 239.39807089 -243.18596703 241.91956747 -246.2109375 244.43359375 C-246.8709375 244.10359375 -247.5309375 243.77359375 -248.2109375 243.43359375 C-237.93104996 232.40924594 -227.62856598 221.40632601 -217.31542969 210.41308594 C-210.02723902 202.64377696 -202.74586816 194.86828241 -195.48022461 187.07788086 C-190.60133666 181.84810225 -185.70977318 176.63029076 -180.81640625 171.4140625 C-176.60792686 166.92676046 -172.40687495 162.43262375 -168.2109375 157.93359375 C-162.75590428 152.0845175 -157.28848778 146.24718859 -151.81640625 140.4140625 C-147.60792686 135.92676046 -143.40687495 131.43262375 -139.2109375 126.93359375 C-133.75590428 121.0845175 -128.28848778 115.24718859 -122.81640625 109.4140625 C-118.6079268 104.9267604 -114.40689631 100.43260389 -110.2109375 95.93359375 C-102.26216619 87.41137296 -94.28881081 78.91227478 -86.31542969 70.41308594 C-79.02723902 62.64377696 -71.74586816 54.86828241 -64.48022461 47.07788086 C-59.60701446 41.8541884 -54.7238516 36.63987924 -49.83178711 31.43383789 C-46.68377889 28.08167443 -43.54766508 24.71967432 -40.43359375 21.3359375 C-27.51933663 7.32020031 -19.91385042 -0.04478354 0 0 Z " fill="#FFFFFF" transform="translate(256.2109375,257.56640625)"/>
<path d="M0 0 C0.66 0.33 1.32 0.66 2 1 C-2.64663919 6.23668862 -7.32378361 11.38463553 -12.3203125 16.2890625 C-14.75191912 18.76590831 -16.98526307 21.40253749 -19.25 24.03125 C-20.93798286 25.93023071 -22.68769734 27.72005988 -24.5 29.5 C-26.93389732 31.89053167 -29.21355559 34.35046262 -31.4375 36.9375 C-33.85617779 39.74576347 -36.35899683 42.39970593 -39 45 C-41.62040609 47.58009215 -44.10323412 50.21103607 -46.5 53 C-49.51641923 56.51001511 -52.73095132 59.75051276 -56.02734375 62.99609375 C-58.57337829 65.58246151 -60.92021557 68.3153528 -63.28515625 71.06640625 C-65.50169397 73.56569138 -67.87162281 75.88281884 -70.25390625 78.22265625 C-72.06477643 80.06593574 -73.75321354 81.97822799 -75.4375 83.9375 C-78.47679651 87.46634763 -81.71016847 90.73005027 -85.02734375 93.99609375 C-87.57337829 96.58246151 -89.92021557 99.3153528 -92.28515625 102.06640625 C-94.50169397 104.56569138 -96.87162281 106.88281884 -99.25390625 109.22265625 C-101.06477643 111.06593574 -102.75321354 112.97822799 -104.4375 114.9375 C-107.47679651 118.46634763 -110.71016847 121.73005027 -114.02734375 124.99609375 C-116.57337829 127.58246151 -118.92021557 130.3153528 -121.28515625 133.06640625 C-123.50169397 135.56569138 -125.87162281 137.88281884 -128.25390625 140.22265625 C-130.06477643 142.06593574 -131.75321354 143.97822799 -133.4375 145.9375 C-136.47679651 149.46634763 -139.71016847 152.73005027 -143.02734375 155.99609375 C-145.57337829 158.58246151 -147.92021557 161.3153528 -150.28515625 164.06640625 C-152.50169397 166.56569138 -154.87162281 168.88281884 -157.25390625 171.22265625 C-159.06477643 173.06593574 -160.75321354 174.97822799 -162.4375 176.9375 C-164.85617779 179.74576347 -167.35899683 182.39970593 -170 185 C-172.62040609 187.58009215 -175.10323412 190.21103607 -177.5 193 C-180.51641923 196.51001511 -183.73095132 199.75051276 -187.02734375 202.99609375 C-189.57337829 205.58246151 -191.92021557 208.3153528 -194.28515625 211.06640625 C-195.96004299 212.95494597 -197.69947587 214.73155648 -199.5 216.5 C-201.87224102 218.83025445 -204.09113517 221.22104406 -206.25 223.75 C-209.21638199 227.15535332 -212.2498118 230.48997418 -215.375 233.75 C-216.22835937 234.65234375 -217.08171875 235.5546875 -217.9609375 236.484375 C-226.21113511 243.31358742 -234.37176189 243.60140733 -244.78125 243.53125 C-246.20414494 243.53395108 -247.62703807 243.5378386 -249.04992676 243.54284668 C-252.01865371 243.54871293 -254.9868962 243.54027298 -257.95556641 243.52148438 C-261.73819808 243.4986956 -265.51969411 243.51183435 -269.30228424 243.53577423 C-272.23651502 243.55031096 -275.17048182 243.54559057 -278.10472107 243.53526306 C-279.49840941 243.53261742 -280.89212266 243.53578836 -282.28578186 243.54518127 C-293.71232063 243.60531503 -301.52590741 241.88573805 -309.96484375 234.05078125 C-313.8078693 230.1782507 -317.4189184 226.11401933 -321 222 C-321.59683594 221.31808594 -322.19367188 220.63617188 -322.80859375 219.93359375 C-323.93627939 218.64443812 -325.06258256 217.35407187 -326.1875 216.0625 C-328.27211164 213.69035571 -330.38428644 211.34443935 -332.5 209 C-335.76390848 205.38323655 -338.98790949 201.73610392 -342.1875 198.0625 C-344.27211164 195.69035571 -346.38428644 193.34443935 -348.5 191 C-351.76390848 187.38323655 -354.98790949 183.73610392 -358.1875 180.0625 C-360.27211164 177.69035571 -362.38428644 175.34443935 -364.5 173 C-367.76390848 169.38323655 -370.98790949 165.73610392 -374.1875 162.0625 C-376.27211164 159.69035571 -378.38428644 157.34443935 -380.5 155 C-383.76390848 151.38323655 -386.98790949 147.73610392 -390.1875 144.0625 C-392.27211164 141.69035571 -394.38428644 139.34443935 -396.5 137 C-399.76390848 133.38323655 -402.98790949 129.73610392 -406.1875 126.0625 C-408.27211164 123.69035571 -410.38428644 121.34443935 -412.5 119 C-414 117.33333333 -415.5 115.66666667 -417 114 C-417.67933594 113.24976562 -418.35867188 112.49953125 -419.05859375 111.7265625 C-419.98865234 110.68628906 -419.98865234 110.68628906 -420.9375 109.625 C-421.48277344 109.01914063 -422.02804687 108.41328125 -422.58984375 107.7890625 C-424.04135381 105.9475345 -425.02946548 104.12861194 -426 102 C-423.35601338 103.26575751 -420.95132423 104.63675287 -418.55859375 106.328125 C-417.9025415 106.79081787 -417.24648926 107.25351074 -416.57055664 107.73022461 C-415.5146936 108.48251343 -415.5146936 108.48251343 -414.4375 109.25 C-413.69298584 109.77795166 -412.94847168 110.30590332 -412.18139648 110.84985352 C-405.78837682 115.40089562 -399.46737189 120.04723612 -393.15991211 124.71582031 C-387.80001587 128.68176282 -382.41223131 132.60582633 -377 136.5 C-369.99774659 141.53993609 -363.04386551 146.64213527 -356.10546875 151.76953125 C-350.76142324 155.71415404 -345.39089219 159.61969056 -340 163.5 C-333.80345586 167.96020953 -327.64023977 172.46259635 -321.5 177 C-311.60890143 184.30703771 -301.64018034 191.50359342 -291.65771484 198.68505859 C-282.36996453 205.36847999 -273.11560859 212.08286172 -264 219 C-259.85584795 217.29957397 -256.75620163 214.3584817 -253.4375 211.4375 C-252.17793997 210.34276361 -250.91751466 209.24902202 -249.65625 208.15625 C-249.03492188 207.61742187 -248.41359375 207.07859375 -247.7734375 206.5234375 C-245.36225841 204.4521603 -242.90532091 202.44078991 -240.4375 200.4375 C-236.41641909 197.17221697 -232.44654838 193.85442156 -228.5 190.5 C-223.65045949 186.37892208 -218.74839036 182.33008517 -213.8125 178.3125 C-210.68200334 175.73853608 -207.58827539 173.12430914 -204.5 170.5 C-199.65040619 166.37898366 -194.74839194 162.33008646 -189.8125 158.3125 C-186.68200334 155.73853608 -183.58827539 153.12430914 -180.5 150.5 C-175.65040619 146.37898366 -170.74839194 142.33008646 -165.8125 138.3125 C-162.68200334 135.73853608 -159.58827539 133.12430914 -156.5 130.5 C-151.65040619 126.37898366 -146.74839194 122.33008646 -141.8125 118.3125 C-138.68200334 115.73853608 -135.58827539 113.12430914 -132.5 110.5 C-127.65040619 106.37898366 -122.74839194 102.33008646 -117.8125 98.3125 C-114.68200334 95.73853608 -111.58827539 93.12430914 -108.5 90.5 C-103.65040619 86.37898366 -98.74839194 82.33008646 -93.8125 78.3125 C-90.68200334 75.73853608 -87.58827539 73.12430914 -84.5 70.5 C-79.65040619 66.37898366 -74.74839194 62.33008646 -69.8125 58.3125 C-66.68200334 55.73853608 -63.58827539 53.12430914 -60.5 50.5 C-55.65040619 46.37898366 -50.74839194 42.33008646 -45.8125 38.3125 C-42.68200334 35.73853608 -39.58827539 33.12430914 -36.5 30.5 C-32.53092065 27.12721426 -28.53983137 23.78823483 -24.5 20.5 C-19.29034298 16.25904934 -14.16173527 11.92778392 -9.04296875 7.578125 C-6.04192774 5.03552286 -3.02497047 2.51402628 0 0 Z " fill="#FFFFFF" transform="translate(536,1)"/>
<path d="" fill="#FFFFFF" transform="translate(0,0)"/>
</svg>
