<svg width="61" height="219" viewBox="0 0 61 219" fill="none" xmlns="http://www.w3.org/2000/svg">
<path d="M-8.56124 75.7199C-8.4871 75.7385 -8.38512 75.7663 -8.29245 75.7848C4.55222 73.6996 15.1634 69.4829 26.6086 64.3024C30.7605 62.4397 34.5788 60.0394 38.0726 57.1016L40.6768 51.6895C41.1494 50.7164 40.1392 49.6969 39.1754 50.1511L26.5532 55.9525C22.5219 57.9172 18.3792 59.8077 14.1069 61.6149C9.59364 63.524 6.85052 66.6286 3.03234 69.5663C1.55881 70.697 0.363441 71.2623 -0.544769 71.2716C-1.31396 71.2901 -1.4253 71.0213 -0.906326 70.4745L10.7429 58.3342C13.1432 53.821 16.3404 49.6599 18.1569 45.1744C21.9843 35.768 25.0519 25.685 25.1353 15.3148C25.1353 14.5919 24.4495 14.0729 23.7544 14.2768L20.7425 15.2036C16.4332 19.3276 15.5712 25.9167 13.9865 31.3567C11.994 38.159 8.70396 45.2208 6.46124 52.1528C5.69205 54.5068 5.3028 54.4419 5.28426 51.9768C5.23792 47.0836 8.57417 41.7826 9.42678 37.3898C11.4471 27.0566 11.688 16.0469 10.1311 4.35138C9.86236 2.35888 8.77807 1.01513 6.88751 0.320067L6.27594 0.097601C5.13604 -0.310166 3.95901 0.616621 4.11655 1.82139C6.06272 17.7799 4.64492 31.6903 3.31968 46.9538C2.52268 56.2953 -2.65784 62.1987 -7.12474 69.1123C-8.23684 70.8545 -8.70949 70.6784 -8.53341 68.6303C-8.17198 64.2561 -4.02021 59.6595 -2.55596 55.5818C1.43831 44.3404 2.70805 32.6912 1.25306 20.6436C0.891628 17.6131 -0.313263 15.2684 -2.3521 13.6003C-3.5476 12.6272 -5.32684 13.3686 -5.48439 14.8885C-6.59648 25.6109 -6.20732 36.2592 -7.41209 46.9723C-7.77352 50.253 -9.18223 53.3854 -11.6474 56.4158C-13.1209 58.2323 -13.8622 60.7252 -12.9354 63.1718C-11.3692 67.3421 -9.905 71.5125 -8.54269 75.7014L-8.56124 75.7199Z" fill="#1A382E"/>
<path d="M12.8831 58.0005C14.1713 58.0005 15.4408 57.7039 16.7104 57.0922C27.3216 51.9488 31.3901 47.4634 38.4889 40.6704C38.6928 38.6501 38.5074 37.2321 37.9513 36.4166C33.5122 29.7811 24.4951 41.7639 22.2894 45.1836C19.7687 49.0852 16.5992 52.9312 12.7718 56.7123C12.3825 57.1015 12.4104 57.5464 12.8831 58.0005Z" fill="#1A382E"/>
<path d="M-8.29324 75.7755C-8.38591 75.7569 -8.47862 75.7291 -8.56203 75.7106C-8.58983 76.9154 -8.51567 78.2035 -8.31179 79.5658C-7.76501 83.3747 -9.8964 88.8055 -10.7397 92.6144C-10.7675 92.7905 -10.8788 92.8646 -11.0549 92.8368L-11.4441 92.7719C-11.8704 92.7071 -12.0558 92.4754 -12.028 92.0491C-11.6203 86.3404 -11.3051 81.8271 -12.9084 75.9793C-13.9464 72.1982 -14.6321 68.5932 -14.975 65.1921C-15.2067 62.8845 -15.9017 62.7455 -17.0138 64.7658C-19.1453 68.6395 -20.3872 72.5782 -20.795 77.2953C-21.592 86.7203 -22.1759 95.8302 -25.262 104.783C-25.3361 105.033 -25.4937 105.209 -25.7346 105.302C-26.2073 105.478 -26.4111 105.32 -26.3647 104.829C-25.6882 98.3973 -23.4177 87.7861 -25.4194 81.8549C-25.855 80.5667 -25.7623 79.501 -25.1414 78.6391C-24.8448 78.2498 -24.6224 77.8421 -24.4556 77.388C-24.159 76.6003 -24.0756 75.8496 -24.2239 75.1267C-24.4556 74.0332 -24.7707 73.9961 -25.197 75.0341C-26.0867 77.2768 -27.4213 79.223 -29.1914 80.8818C-29.4416 81.1321 -29.6177 81.4472 -29.6918 81.8086C-30.0069 83.5323 -30.3035 85.2468 -30.6 86.9334C-31.1653 90.2697 -33.547 92.7627 -32.4164 96.9423C-32.3052 97.35 -31.9624 97.6281 -31.5546 97.6929C-31.3693 97.7207 -31.1931 97.7856 -31.0356 97.8968C-30.8966 97.9895 -30.8132 98.1285 -30.8132 98.3046C-31.1097 108.999 -35.141 115.57 -39.0889 124.726C-39.4226 125.467 -39.9787 125.838 -40.7942 125.857H-41.2205C-41.6931 125.857 -42.0174 125.384 -41.8506 124.949C-39.9508 119.963 -37.0408 115.301 -35.6229 110.723C-34.0752 105.691 -33.4915 102.345 -33.8807 100.668C-35.2616 94.8942 -34.5108 90.4921 -33.4728 85.4877C-33.3431 84.9039 -34.0382 84.4961 -34.4923 84.8946C-35.382 85.6823 -35.9195 86.6832 -36.1234 87.9065C-36.1883 88.2958 -36.4199 88.4718 -36.8092 88.444C-36.9482 88.4255 -37.0872 88.4163 -37.2354 88.4163C-37.3466 88.3977 -37.4115 88.3421 -37.4207 88.2309C-37.4856 87.4895 -37.8286 86.9613 -38.4681 86.6647C-38.7646 86.5257 -39.1075 86.7574 -39.0982 87.091C-38.8758 91.3911 -38.9593 95.0703 -40.6182 99.2406C-41.5264 101.511 -42.4531 103.772 -43.3891 106.034C-46.364 113.262 -48.8939 120.648 -50.9513 128.192C-51.8966 131.64 -53.6945 133.308 -55.409 136.329C-57.1605 139.406 -60.5988 141.945 -63.0639 144.512C-63.3605 144.827 -63.6755 144.827 -63.9721 144.531C-64.1574 144.345 -64.1758 144.123 -64.0368 143.854C-62.1277 140.453 -59.8943 137.265 -57.3736 134.309C-57.0585 133.929 -56.8916 133.465 -56.8731 132.974C-56.8082 129.805 -53.6111 127.803 -53.0921 125.004C-51.6649 117.433 -50.2841 109.843 -48.9218 102.253C-48.3287 98.9163 -50.1914 95.1352 -53.7315 94.4308C-61.0806 92.9573 -62.4058 104.875 -62.6838 109.704C-63.0638 116.617 -64.5374 123.188 -63.7311 130.277C-63.7126 130.481 -63.6013 130.574 -63.3974 130.555H-63.3788C-63.175 130.537 -63.0822 130.416 -63.1008 130.212C-63.6383 124.411 -61.6273 118.99 -61.4975 113.809C-61.3585 108.128 -61.5625 101.891 -56.5396 99.1758C-55.9928 98.8792 -55.6314 99.0182 -55.4275 99.6021C-55.0476 100.761 -54.8159 102.41 -54.5193 103.633C-54.4081 104.134 -54.5006 104.579 -54.7972 104.949C-55.0752 105.311 -55.6776 105.135 -55.7054 104.681C-55.8166 103.411 -56.4561 102.688 -57.6516 102.549C-58.2633 102.475 -58.81 102.975 -58.7822 103.587L-58.3467 116.191C-58.3282 116.645 -58.4116 117.071 -58.6155 117.479C-61.5162 123.503 -59.9036 128.943 -61.5903 135.421C-61.7293 135.958 -61.9982 136.412 -62.3874 136.774C-64.4077 138.637 -65.3528 140.99 -65.2231 143.817C-65.2045 144.336 -65.362 144.836 -65.6586 145.263C-67.9662 148.386 -69.0784 151.296 -68.995 154.011C-68.9208 156.977 -68.2072 163.733 -66.882 174.251C-66.2518 179.219 -66.4464 184.149 -66.4093 189.051C-66.3908 191.313 -65.9274 191.415 -65.0006 189.366C-63.5457 186.151 -63.4808 177.986 -63.1657 173.964C-63.1008 173.306 -63.4808 172.694 -64.0925 172.426C-65.0841 171.999 -65.566 171.091 -65.5475 169.682C-65.5197 166.3 -65.7699 164.697 -67.1044 160.962C-67.8921 158.765 -67.6697 156.569 -66.4279 154.373C-66.1591 153.891 -66.0201 153.353 -66.0201 152.806V152.065C-66.0201 151.592 -65.8164 151.25 -65.4086 151.027C-61.127 148.692 -56.7805 146.449 -52.3785 144.317C-49.6353 142.983 -45.9653 141.482 -41.3687 139.832C-31.3784 136.227 -25.438 130.954 -16.4208 126.264C-10.2116 123.03 -6.72702 118.61 -3.40928 111.854C-1.13875 107.257 1.19671 102.679 3.61551 98.1471C3.94914 97.5354 3.77302 97.3315 3.11504 97.554C-3.11268 99.6206 -7.19037 102.058 -11.7221 107.433C-17.8665 114.708 -24.1405 121.232 -32.2958 125.291C-35.4745 126.876 -37.4208 129.054 -39.9971 131.315C-40.2751 131.547 -40.6829 131.547 -40.9331 131.297L-41.2112 131.019C-41.3409 130.907 -41.3502 130.787 -41.239 130.639C-39.9972 129.147 -37.5042 127.108 -33.7323 124.504C-25.7067 118.999 -18.4319 111.909 -11.8891 103.253C-9.55373 100.167 -6.46747 96.7662 -2.64928 93.0778C1.06696 89.4727 2.00296 86.3311 1.97516 81.4101C1.95662 80.5297 1.29848 79.7975 0.427343 79.7049C-3.36304 79.2971 -6.26363 77.9811 -8.25613 75.7662L-8.29324 75.7755Z" fill="#14342F"/>
<path d="M45.0035 103.958C45.0035 102.781 44.8738 102.141 44.6236 102.058C39.1466 108.749 33.5396 113.568 27.7845 116.515C21.2139 119.889 17.09 122.141 15.3941 123.29C15.1624 123.447 14.875 123.494 14.6063 123.447L13.1605 123.151C12.8454 123.086 12.7714 122.678 13.0308 122.493C15.394 120.926 17.266 119.258 19.9629 118.211C35.4117 112.252 44.7346 99.3519 51.6204 84.5888C53.3441 80.8911 53.3628 77.5641 52.4546 73.8015C52.3156 73.2177 51.5741 73.0602 51.2126 73.5328C44.9293 81.9384 39.3781 92.2252 34.0308 99.2777C29.7492 104.903 26.1257 108.934 23.1786 111.353C17.266 116.182 13.2995 120.037 11.2792 122.938C10.4822 124.068 8.10043 125.56 4.0969 127.423C2.03953 128.377 0.69577 129.897 -0.981636 131.362C-1.23186 131.584 -1.43564 131.538 -1.57465 131.232C-1.63953 131.102 -1.70435 130.982 -1.75996 130.852C-1.77849 130.824 -1.76011 130.741 -1.68597 130.62C-0.323658 128.442 1.01094 126.932 2.34546 126.088C13.7444 118.841 23.5123 110.223 27.1173 97.1277C27.3212 96.4233 27.3212 95.2 27.1173 93.4763C27.0524 92.9388 26.8207 92.5032 26.3944 92.1603C24.9394 91.0019 23.3084 90.761 21.529 91.4746C21.0934 91.6506 20.7413 92.0213 20.6208 92.4755C18.1742 101.001 12.6415 109.555 8.78628 117.655C8.28584 118.702 7.45184 119.49 6.31195 119.99C5.63542 120.269 5.4316 120.065 5.68182 119.397C6.9978 115.95 7.35921 112.706 9.37025 109.546C12.8363 104.152 15.218 99.1665 16.534 94.5698C17.646 90.6312 16.8304 90.1771 14.0594 93.1705C10.927 96.5531 7.21082 99.0368 5.0793 103.272C2.65123 108.082 0.658817 113.086 -0.861042 118.276C-1.56537 120.695 -4.21589 124.578 -8.77547 129.962C-9.54467 130.87 -9.60945 132.177 -8.91439 133.141L-6.07873 137.2C-5.291 138.312 -3.63193 138.294 -2.86273 137.172C-1.68576 135.411 -0.416214 134.29 0.98317 133.771C15.4218 128.489 26.6169 124.189 37.3764 115.57C41.2687 112.465 42.6589 108.184 45.0128 103.948L45.0035 103.958Z" fill="#14342F"/>
<path d="M15.6451 84.6721C17.0908 83.7454 18.0731 83.0133 18.6199 82.4479C21.3631 79.575 20.7884 78.5556 16.9146 79.3619C14.4866 79.8623 13.6247 81.3822 11.6137 82.0402C11.1132 82.2163 10.6685 82.4942 10.2792 82.8742C8.28672 84.8667 4.20889 88.1567 3.866 91.0481C3.79186 91.7895 4.05147 91.9563 4.68165 91.5671C8.41643 89.278 12.0679 86.989 15.6451 84.6814V84.6721Z" fill="#14342F"/>
<path d="M36.1438 122.928C25.2268 128.35 15.9593 132.02 8.32296 133.947C4.37503 134.939 1.5764 136.255 -1.25943 138.59C-1.94522 139.155 -1.71357 140.286 -0.833168 140.499C7.32218 142.566 15.2551 142.038 22.9841 138.896C23.4567 138.711 23.9387 138.674 24.4392 138.785C25.2084 138.989 25.9404 138.859 26.654 138.423C29.0079 136.978 31.121 135.652 33.0023 134.429C34.7445 133.298 36.0327 131.602 36.6443 129.628L38.1826 124.643C38.8591 122.483 38.1641 121.899 36.1438 122.919V122.928Z" fill="#14342F"/>
<path d="M36.1534 166.745C37.942 163.974 38.9429 162.083 39.1653 161.073C40.0549 156.884 40.8241 153.094 41.4729 149.693C41.8065 147.923 41.1763 147.45 39.573 148.284C37.5342 149.331 36.1533 148.849 35.4305 146.838C35.3193 146.523 35.0969 146.43 34.7911 146.542L34.3184 146.727C34.3184 146.727 34.2721 146.755 34.2906 146.792C35.1803 149.081 36.3943 150.536 36.1905 153.094C35.8476 157.31 35.0784 161.434 33.8736 165.466C33.1229 168.024 33.3732 170.498 32.7801 173.13C32.6689 173.584 32.4 173.76 31.9459 173.677L31.5104 173.603C31.325 173.556 31.2416 173.445 31.288 173.26C32.085 169.72 31.1118 166.717 32.1312 163.362C33.1692 160.007 33.9014 157.422 34.3277 155.596C34.4667 155.012 34.3926 154.438 34.096 153.891C33.8643 153.437 33.6696 153.455 33.5306 153.937C32.4 157.681 31.2232 161.388 29.9906 165.058C29.555 166.411 29.7218 167.579 29.2399 168.821C23.2068 184.39 16.9606 196.984 1.47467 205.103C1.13177 205.279 0.723919 205.195 0.455166 204.917L0.112389 204.528C-0.063694 204.343 -0.0453148 204.185 0.186375 204.055C10.5474 198.347 17.7205 189.876 21.6499 178.672C25.431 167.931 28.8599 157.366 31.9552 146.996C32.2239 146.088 31.3251 145.253 30.4354 145.596C23.5034 148.321 17.6093 150.647 10.0656 150.693C6.57178 150.712 3.04073 150.582 -0.517963 150.332C-0.814522 150.314 -0.972057 150.443 -0.972057 150.74V151.212C-0.990593 151.444 -0.860725 151.592 -0.610504 151.62C4.10662 152.102 13.2999 151.342 16.9234 154.271C18.6935 155.698 18.4432 156.439 16.1727 156.513C9.7133 156.699 2.76274 156.171 -4.65121 154.901C-10.638 153.881 -16.2539 155.355 -18.4318 161.064C-19.1176 162.88 -18.6079 163.353 -16.8656 162.472C-12.8992 160.461 -8.68258 159.192 -4.22494 158.663C-2.48266 158.46 -2.2324 158.96 -3.4835 160.202C-7.40363 164.076 -11.6852 164.354 -16.8935 165.141C-19.1362 165.475 -20.7487 166.087 -21.7403 167.004C-24.7522 169.775 -26.2072 179.515 -20.378 180.21C-14.7805 180.887 -9.52585 179.58 -4.62337 176.318C-0.063797 173.306 2.63303 171.647 6.49755 169.423C6.93312 169.173 6.72919 168.478 6.21948 168.533C4.0231 168.756 -0.119389 170.072 -1.60218 171.61C-1.93581 171.953 -2.32508 171.972 -2.79772 171.656C-2.92746 171.564 -3.07571 171.517 -3.23326 171.527L-20.7765 172.157C-21.0916 172.175 -21.3419 171.925 -21.3419 171.61V170.998C-21.3419 170.387 -20.8691 169.886 -20.2574 169.84C-9.26624 168.96 13.5965 166.708 18.1746 158.08C18.397 157.672 18.9252 157.598 19.2588 157.904L19.7593 158.376C20.4358 159.016 20.5562 159.776 20.1392 160.6C18.5545 163.659 16.9233 168.255 15.2274 174.4C12.3916 184.714 5.07041 192.527 -3.41856 199.459C-7.70012 202.953 -12.3525 208.587 -17.9037 212.081C-22.6115 215.047 -28.8669 215.816 -34.3995 217.475C-36.4106 218.086 -36.3551 218.429 -34.2606 218.522C-25.4473 218.93 -17.0139 219.059 -8.02445 217.169C1.74343 215.111 12.3916 213.202 20.8621 209.848C25.9128 207.855 30.9265 205.408 35.9309 202.526C37.2655 201.757 37.1543 199.811 35.7549 199.171C34.8282 198.745 33.5307 198.829 31.8163 199.403C17.2664 204.37 2.60535 209.013 -12.1484 213.323C-12.5284 213.434 -12.788 213.295 -12.9362 212.934L-13.0752 212.554C-13.1493 212.368 -13.0938 212.22 -12.9177 212.146C-8.00595 209.727 -3.82625 208.05 -0.323158 207.114C8.85161 204.621 17.1737 201.488 24.6711 197.67C30.1111 194.899 36.4499 191.591 42.3439 191.007C46.088 190.627 55.513 187.022 56.9773 182.731C57.246 181.934 56.4398 181.193 55.6799 181.526C54.0025 182.203 52.4362 182.972 50.9442 183.797C47.9322 185.474 44.4848 185.975 41.5192 188.505C41.0373 188.912 40.7501 188.801 40.6574 188.171C40.5833 187.652 40.7037 187.198 41.0651 186.818C46.9407 180.637 52.1212 173.927 56.6067 166.68C59.322 162.306 60.434 157.542 59.9428 152.408C59.6092 148.97 58.2932 147.765 55.9949 148.803C55.3647 149.081 54.9014 149.618 54.679 150.258C52.0007 158.46 49.5819 164.53 43.799 171.406C40.2588 175.623 36.728 179.877 33.2342 184.14C30.6115 187.337 25.0603 192.276 16.5806 198.977C16.4046 199.116 16.2377 199.107 16.0987 198.931L16.0802 198.912C15.9412 198.736 15.9505 198.569 16.1265 198.43C23.42 192.202 28.7486 186.531 32.1498 181.387C36.0884 175.41 40.1939 169.534 44.4755 163.751C48.0342 158.969 50.3418 153.65 51.4075 147.821C51.8616 145.3 50.7681 143.585 50.7774 141.13C50.7959 139.637 51.2779 139.471 52.2325 140.592C53.5021 142.093 54.3361 143.789 54.7253 145.689C54.8644 146.393 55.5871 146.838 56.2729 146.644C57.7001 146.236 57.8856 145.281 56.8662 143.771C55.0312 141.055 53.224 138.396 51.4446 135.773C50.8144 134.865 49.4244 135.133 49.1742 136.199C47.8767 141.658 45.1151 146.375 43.6879 151.694C42.2329 157.134 40.0827 162.361 37.2469 167.356C37.1356 167.542 36.9041 167.607 36.7095 167.495L36.3294 167.273C36.107 167.134 36.0607 166.958 36.1997 166.735L36.1534 166.745Z" fill="#14342F"/>
<path d="M-5.2527 141.389C-6.02189 141.111 -6.17948 141.315 -5.75317 142.001C-0.785826 149.952 17.3783 149.702 23.5689 143.817C23.9581 143.456 23.6801 142.798 23.1426 142.844C20.2883 143.066 16.8408 144.039 14.8019 144.225C8.20352 144.864 1.5218 143.91 -5.2527 141.389Z" fill="#14342F"/>
<path d="M4.85703 180.488C5.237 179.246 6.73842 176.596 6.81256 174.604C6.84036 173.723 6.56218 173.603 5.95053 174.242C0.0379 180.433 -2.52918 188.523 -7.48726 199.348C-7.59847 199.579 -7.55196 199.774 -7.31101 199.894L-6.93112 200.117C-6.80138 200.182 -6.70864 200.163 -6.6345 200.052C-5.14244 197.855 -3.71536 195.65 -2.33451 193.416C-0.0176506 189.672 3.32791 185.622 4.86631 180.479L4.85703 180.488Z" fill="#14342F"/>
</svg>
