<svg width="20" height="21" viewBox="0 0 20 21" fill="none" xmlns="http://www.w3.org/2000/svg">
<circle cx="10" cy="10.5" r="10" fill="#765A46"/>
<path d="M8.48514 17.2025C8.55433 17.2598 8.62832 17.3171 8.70229 17.3696C8.72615 17.3863 8.74047 17.3958 8.74286 17.3982C8.76224 17.4124 8.78567 17.4199 8.80967 17.4197C8.82882 17.4199 8.84774 17.4155 8.86479 17.4067C8.88183 17.398 8.89649 17.3852 8.9075 17.3696C8.92552 17.3435 8.93262 17.3114 8.92727 17.2802C8.92191 17.249 8.90454 17.2211 8.87886 17.2025L8.82876 17.1667C8.79056 17.1381 8.73331 17.0975 8.66171 17.0402C8.21676 16.6857 7.84202 16.2511 7.55683 15.7588C6.52591 13.9762 6.93876 11.6399 8.54 10.2009C9.17947 9.64111 9.89641 9.17654 10.6686 8.8216C7.14399 11.5158 7.75011 13.8902 7.77875 13.9952C7.78572 14.0222 7.80199 14.0459 7.8247 14.062C7.8474 14.0782 7.87508 14.0858 7.90285 14.0835C10.0601 13.9046 11.6566 13.0956 12.6493 11.6781C14.6467 8.82638 13.4822 4.42593 13.4702 4.38297C13.4639 4.35793 13.4495 4.33569 13.4292 4.31971C13.4089 4.30374 13.3839 4.29494 13.3581 4.29468H13.3557C13.3302 4.29468 13.3054 4.30277 13.2848 4.31778C13.2642 4.33279 13.2489 4.35394 13.2411 4.37819C13.2364 4.39729 12.6422 6.25627 10.0195 7.01514C8.60837 7.40483 7.33972 8.19369 6.36603 9.28695C6.16224 9.52323 5.99493 9.78867 5.86966 10.0745C4.34716 13.5585 7.53058 16.4413 8.48514 17.2025Z" fill="#151915"/>
</svg>
