<svg width="32" height="32" viewBox="0 0 32 32" fill="none" xmlns="http://www.w3.org/2000/svg">
<path d="M3.42641 16.2567C3.42641 11.2607 6.58562 6.86271 11.2221 5.23654L10.64 7.02953C10.5492 7.3094 10.7024 7.60995 10.9823 7.70079C11.0369 7.71853 11.0924 7.727 11.1469 7.727C11.3715 7.727 11.5804 7.58379 11.6536 7.35858L12.5507 4.59533C12.6415 4.31557 12.4884 4.01513 12.2087 3.92413L9.4478 3.02628C9.16777 2.93523 8.86733 3.0884 8.77633 3.36817C8.68533 3.64793 8.8384 3.94858 9.11822 4.03958L10.331 4.43395C5.56603 6.35129 2.36084 11.0007 2.36084 16.2567C2.36084 17.4167 2.51673 18.5647 2.82415 19.669C2.88974 19.9047 3.17547 20.0492 3.40872 20.0492C3.69222 19.9703 3.92963 19.6667 3.85072 19.3832C3.5692 18.372 3.42641 17.3201 3.42641 16.2567Z" fill="white"/>
<path d="M23.4186 24.4384C21.2057 26.6929 18.2492 27.9344 15.0938 27.9344C12.3056 27.9344 9.67306 26.9644 7.57133 25.1834L9.33778 24.9349C9.62921 24.8939 9.83215 24.6245 9.79118 24.3331C9.75016 24.0417 9.48014 23.8388 9.1894 23.8797L6.31464 24.2841C6.02326 24.3251 5.82032 24.5945 5.86119 24.8858L6.2652 27.763C6.3026 28.0292 6.56814 28.2191 6.82953 28.2191C7.12091 28.1782 7.36136 27.9062 7.32044 27.6148L7.12086 26.1936C9.37406 28.0123 12.1546 29 15.0938 29C18.5376 29 21.7641 27.6451 24.179 25.1849C24.3851 24.9749 24.382 24.6376 24.172 24.4314C23.9621 24.2253 23.6247 24.2284 23.4186 24.4384Z" fill="white"/>
<path d="M29.5202 17.3621C29.3349 17.1334 28.9994 17.0984 28.7709 17.2836L27.6844 18.1642C27.7789 17.5355 27.8268 16.8978 27.8268 16.2566C27.8268 10.4383 23.8997 5.36318 18.2766 3.9147C17.9916 3.84107 17.7012 4.01273 17.6278 4.29772C17.5544 4.58265 17.7259 4.87318 18.0108 4.94654C23.1629 6.27377 26.7612 10.9246 26.7612 16.2566C26.7612 16.9586 26.6986 17.6555 26.5753 18.3391L25.4376 16.9329C25.2524 16.7041 24.917 16.6687 24.6882 16.8538C24.4595 17.0389 24.4241 17.3744 24.6092 17.6031L26.4361 19.861C26.5251 19.971 26.6818 20.0425 26.8225 20.0573C26.9441 20.0573 27.0905 20.0171 27.1857 19.9398L29.4419 18.1114C29.6704 17.9262 29.7056 17.5906 29.5202 17.3621Z" fill="white"/>
</svg>
