<svg width="32" height="32" viewBox="0 0 32 32" fill="none" xmlns="http://www.w3.org/2000/svg">
<path d="M14.0082 24.1042C14.2967 24.1042 14.5306 23.8703 14.5306 23.5818C14.5306 23.2933 14.2967 23.0594 14.0082 23.0594C13.7197 23.0594 13.4858 23.2933 13.4858 23.5818C13.4858 23.8703 13.7197 24.1042 14.0082 24.1042Z" fill="white"/>
<path d="M19.53 12.3895C19.326 12.1856 18.9953 12.1856 18.7912 12.3895L5.53484 25.6459C5.43689 25.7439 5.38184 25.8768 5.38184 26.0153C5.38184 26.1538 5.43689 26.2867 5.53484 26.3847L8.37012 29.2199C8.47214 29.322 8.60582 29.373 8.7395 29.373C8.87317 29.373 9.00685 29.3219 9.10887 29.2199L12.7122 25.6167C12.9161 25.4127 12.9161 25.0819 12.7122 24.8779C12.5081 24.6739 12.1774 24.6739 11.9734 24.8779L8.7395 28.1118L6.64297 26.0153L16.4352 16.223L18.5317 18.3196L15.2978 21.5535C15.0938 21.7575 15.0938 22.0882 15.2978 22.2922C15.5018 22.4963 15.8325 22.4963 16.0366 22.2923L22.3652 15.9636C22.5692 15.7596 22.5692 15.4289 22.3652 15.2249L19.53 12.3895ZM19.2705 17.5808L17.174 15.4843L19.1606 13.4977L21.2571 15.5942L19.2705 17.5808Z" fill="white"/>
<path d="M5.7605 18.5457L7.17051 17.8657L8.58058 18.5457C8.65267 18.5805 8.73019 18.5976 8.80745 18.5976C8.91589 18.5976 9.02371 18.5639 9.11455 18.4978C9.27017 18.3848 9.35104 18.1954 9.32513 18.0048L9.11414 16.4536L10.1966 15.3227C10.3295 15.1838 10.3754 14.983 10.316 14.8001C10.2565 14.6172 10.1014 14.4817 9.91218 14.4475L8.37178 14.1688L7.63068 12.7899C7.53963 12.6205 7.36285 12.5148 7.17051 12.5148C6.97817 12.5148 6.80145 12.6205 6.71035 12.7899L5.96929 14.1688L4.4289 14.4475C4.23964 14.4817 4.08449 14.6172 4.02509 14.8001C3.96565 14.983 4.01156 15.1838 4.14451 15.3227L5.22694 16.4536L5.01595 18.0048C4.99004 18.1954 5.07095 18.3848 5.22652 18.4978C5.38219 18.6109 5.58738 18.6293 5.7605 18.5457ZM6.40324 15.1521C6.55985 15.1238 6.69504 15.0256 6.77037 14.8853L7.17051 14.1407L7.57071 14.8853C7.64604 15.0256 7.78123 15.1238 7.93784 15.1521L8.76968 15.3026L8.18513 15.9132C8.07512 16.0282 8.02346 16.1871 8.04487 16.3448L8.15886 17.1825L7.39738 16.8153C7.32571 16.7807 7.24808 16.7634 7.17046 16.7634C7.09289 16.7634 7.01521 16.7807 6.94354 16.8153L6.18211 17.1825L6.2961 16.3448C6.31751 16.1871 6.2659 16.0282 6.15584 15.9132L5.57134 15.3026L6.40324 15.1521Z" fill="white"/>
<path d="M27.9746 6.93309C27.9152 6.7502 27.7601 6.6147 27.5708 6.58048L26.0304 6.30179L25.2894 4.92291C25.1983 4.75351 25.0215 4.64783 24.8292 4.64783C24.6369 4.64783 24.4601 4.75351 24.369 4.92291L23.628 6.30179L22.0876 6.58048C21.8983 6.6147 21.7432 6.7502 21.6838 6.93309C21.6243 7.11598 21.6703 7.31678 21.8032 7.45573L22.8856 8.58664L22.6746 10.1378C22.6487 10.3284 22.7296 10.5178 22.8852 10.6308C22.9761 10.6969 23.0839 10.7306 23.1923 10.7306C23.2696 10.7306 23.3472 10.7135 23.4192 10.6787L24.8293 9.99874L26.2393 10.6787C26.4125 10.7623 26.6176 10.7438 26.7732 10.6308C26.9289 10.5178 27.0097 10.3284 26.9838 10.1378L26.7728 8.58664L27.8553 7.45573C27.9881 7.31678 28.0341 7.11603 27.9746 6.93309ZM25.8438 8.04623C25.7338 8.16121 25.6821 8.32012 25.7036 8.47783L25.8175 9.31546L25.0561 8.94828C24.9128 8.87907 24.7457 8.87912 24.6023 8.94828L23.8408 9.31546L23.9548 8.47783C23.9762 8.32012 23.9246 8.16121 23.8145 8.04623L23.23 7.43557L24.0619 7.28507C24.2185 7.25671 24.3537 7.15855 24.429 7.01829L24.8292 6.27369L25.2293 7.01829C25.3047 7.1585 25.4399 7.25671 25.5965 7.28507L26.4283 7.43557L25.8438 8.04623Z" fill="white"/>
<path d="M10.875 7.86431L10.5658 10.1378C10.5399 10.3283 10.6208 10.5177 10.7763 10.6308C10.932 10.7438 11.1372 10.7623 11.3103 10.6787L13.377 9.68209L15.4436 10.6787C15.5157 10.7134 15.5932 10.7306 15.6704 10.7306C15.7789 10.7306 15.8867 10.6968 15.9775 10.6308C16.1332 10.5177 16.214 10.3283 16.1881 10.1378L15.8789 7.86431L17.4653 6.20684C17.5983 6.06789 17.6442 5.86714 17.5848 5.6842C17.5253 5.50132 17.3702 5.36586 17.181 5.33159L14.9232 4.92309L13.8371 2.9021C13.746 2.73269 13.5693 2.62701 13.377 2.62701C13.1846 2.62701 13.0079 2.73269 12.9168 2.9021L11.8307 4.92309L9.57294 5.33159C9.38368 5.36586 9.22853 5.50132 9.16914 5.6842C9.10969 5.86709 9.15561 6.06789 9.28855 6.20679L10.875 7.86431ZM12.2646 5.90632C12.4212 5.87795 12.5564 5.7798 12.6317 5.63954L13.377 4.25282L14.1223 5.63954C14.1976 5.77974 14.3328 5.87795 14.4894 5.90632L16.0385 6.18658L14.95 7.32385C14.84 7.43883 14.7883 7.59774 14.8097 7.75545L15.0219 9.31538L13.6038 8.63153C13.5322 8.59695 13.4545 8.57966 13.3769 8.57966C13.2993 8.57966 13.2217 8.59695 13.15 8.63153L11.732 9.31533L11.9442 7.75539C11.9656 7.59769 11.914 7.43878 11.8039 7.3238L10.7153 6.18652L12.2646 5.90632Z" fill="white"/>
</svg>
