<svg width="33" height="32" viewBox="0 0 33 32" fill="none" xmlns="http://www.w3.org/2000/svg">
<g clip-path="url(#clip0_340_7050)">
<path fill-rule="evenodd" clip-rule="evenodd" d="M7.84582 6.81757C8.41514 6.10592 9.27708 5.69165 10.1884 5.69165H29.4999C31.1568 5.69165 32.4999 7.0348 32.4999 8.69165V23.3082C32.4999 24.9651 31.1568 26.3082 29.4999 26.3082H10.1884C9.27708 26.3082 8.41514 25.894 7.84582 25.1823L1.99919 17.874C1.12267 16.7784 1.12267 15.2215 1.99919 14.1259L7.84582 6.81757ZM20.2548 17.399L16.5063 21.1475L15.1811 19.8222L18.9295 16.0737L15.1811 12.3252L16.5063 11L20.2548 14.7484L24.0033 11L25.3286 12.3252L21.5801 16.0737L25.3286 19.8222L24.0033 21.1475L20.2548 17.399Z" fill="white"/>
</g>
<defs>
<clipPath id="clip0_340_7050">
<rect width="32" height="32" fill="white" transform="translate(0.5)"/>
</clipPath>
</defs>
</svg>
