<svg width="32" height="32" viewBox="0 0 32 32" fill="none" xmlns="http://www.w3.org/2000/svg">
<path d="M25.6303 12.0772C26.4874 11.2495 27.0215 10.0894 27.0215 8.80708C27.0215 7.54019 26.4869 6.32134 25.5549 5.46262C25.3976 5.31764 25.153 5.32795 25.0079 5.48482C24.863 5.64219 24.8733 5.8868 25.0301 6.03183C25.8037 6.7445 26.2475 7.75591 26.2475 8.80708C26.2475 11.5854 23.3395 13.3882 20.8739 12.2226C20.778 12.1773 20.7141 12.083 20.7078 11.9771C20.6765 11.4518 20.4494 9.78066 18.8493 8.61477C18.7637 8.55236 18.7179 8.44831 18.7307 8.34309C19.0253 5.93113 21.5418 4.38997 23.8469 5.29185C24.046 5.36924 24.2705 5.27123 24.3484 5.07201C24.4263 4.8728 24.3278 4.64835 24.1286 4.57096C21.4383 3.51958 18.4999 5.22106 18.0007 7.99762C17.9899 8.05795 17.9254 8.09126 17.8686 8.06826C16.7728 7.62504 15.5477 7.63129 14.468 8.06841C14.4114 8.09132 14.3472 8.05821 14.3364 7.99808C13.9539 5.87593 12.0934 4.26028 9.86238 4.26028C9.86238 4.26028 9.86238 4.26028 9.86187 4.26028C7.92004 4.26028 6.1918 5.49411 5.5612 7.32965C5.49153 7.53191 5.59939 7.75179 5.80165 7.82141C6.00341 7.89058 6.2238 7.78323 6.29342 7.58096C6.81616 6.05763 8.25073 5.03434 9.86232 5.03434C11.7852 5.03434 13.3767 6.48059 13.6062 8.34233C13.6191 8.44719 13.5742 8.55114 13.489 8.6135C12.4007 9.40995 11.7161 10.6509 11.6319 11.9761C11.6252 12.0817 11.562 12.1758 11.4664 12.221C9.0902 13.3462 6.20546 11.7204 6.09263 8.96287C6.08384 8.74924 5.90428 8.5841 5.69014 8.59187C5.4765 8.60065 5.31085 8.78072 5.31913 8.99436C5.3661 10.14 5.83669 11.2118 6.64741 12.0214C4.58011 12.3688 3 14.1707 3 16.335V22.736C3 23.5804 3.68458 24.265 4.52902 24.265H9.30647V26.2137C9.30647 27.0584 9.99131 27.7431 10.836 27.7431L21.1996 27.7426C22.0232 27.724 22.6935 27.0382 22.6935 26.2136V24.265H27.4705C28.3152 24.265 29 23.5802 29 22.7355V16.335C29 14.2688 27.5592 12.5328 25.6303 12.0772ZM14.406 8.95003C16.7674 7.69634 19.6998 9.26522 19.9271 11.9611C19.9255 11.9611 19.9245 11.9611 19.9235 11.9616H19.9271C19.9514 12.2401 19.9416 12.525 19.9137 12.7352C19.9101 12.7357 19.9059 12.7357 19.9018 12.7357H19.9137C19.8153 13.7343 19.2163 14.794 18.2361 15.4381H18.234V15.4397C17.4315 15.9666 16.4979 16.1445 15.6249 16.0176V16.0155C15.6244 16.016 15.6244 16.0165 15.6244 16.0176C15.1769 15.9649 14.5968 15.7651 14.1005 15.4381C11.6882 13.852 11.8783 10.2872 14.406 8.95003ZM21.1722 26.969H10.836C10.4188 26.969 10.0805 26.6308 10.0805 26.2136V19.8132C10.0805 19.005 10.3422 18.2413 10.837 17.605C10.9681 17.4363 10.9377 17.1932 10.7689 17.0616C10.6002 16.9306 10.3571 16.961 10.2255 17.1297C9.62431 17.9033 9.30647 18.8311 9.30647 19.8131V23.4909H4.52902C4.11206 23.4909 3.77406 23.1529 3.77406 22.7359V16.3351C3.77406 14.3467 5.38601 12.7347 7.37445 12.7347H7.5695C8.72767 13.4126 10.1214 13.5321 11.3576 13.1005C11.5228 13.0429 11.6996 13.1417 11.7391 13.3121C11.897 13.9932 12.2085 14.616 12.6347 15.1424C12.7663 15.3049 12.6845 15.5478 12.4834 15.6049C12.1396 15.7026 11.808 15.8421 11.4976 16.0213C11.3123 16.1287 11.2489 16.365 11.3556 16.5503C11.4624 16.7355 11.6993 16.799 11.8846 16.6922C12.7588 16.1866 13.557 16.2096 13.8097 16.2132C13.8587 16.2139 13.9062 16.2274 13.949 16.2515C15.3493 17.0379 17.0447 17.0084 18.3768 16.2578C18.4257 16.2302 18.4811 16.2156 18.537 16.219C20.416 16.3314 21.9195 17.896 21.9195 19.8132C21.9195 21.1053 21.9195 24.9216 21.9195 26.2136C21.9195 26.633 21.5697 26.969 21.1722 26.969ZM28.2259 22.736C28.2259 23.1524 27.8869 23.4909 27.4705 23.4909H22.6935V19.8132C22.6935 17.7464 21.2533 16.0099 19.3233 15.5548C20.0671 14.8373 20.518 13.9214 20.6624 12.9762C21.955 13.5421 23.4867 13.4787 24.7576 12.7373C26.6814 12.807 28.2259 14.3943 28.2259 16.3351V22.736Z" fill="white"/>
</svg>
